<?xml version="1.0" standalone="no"?>
<!DOCTYPE svg PUBLIC "-//W3C//DTD SVG 20010904//EN"
 "http://www.w3.org/TR/2001/REC-SVG-20010904/DTD/svg10.dtd">
<svg version="1.0" xmlns="http://www.w3.org/2000/svg"
 width="500.000000pt" height="499.000000pt" viewBox="0 0 500.000000 499.000000"
 preserveAspectRatio="xMidYMid meet">

<g transform="translate(0.000000,499.000000) scale(0.100000,-0.100000)"
fill="#000000" stroke="none">
<path d="M2260 4823 c-932 -100 -1724 -749 -1998 -1638 -45 -145 -59 -222 -44
-237 9 -9 7 -17 -10 -35 -16 -17 -18 -23 -7 -23 8 0 21 6 28 13 11 10 13 9 9
-2 -3 -12 -16 -22 -46 -38 -14 -7 -32 -217 -32 -370 0 -384 72 -699 239 -1038
194 -395 481 -715 852 -950 571 -362 1281 -458 1933 -260 742 225 1334 820
1559 1565 70 232 97 418 97 676 0 381 -73 701 -234 1029 -194 394 -466 702
-835 943 -122 80 -366 204 -392 200 -9 -2 -26 5 -37 15 -15 14 -25 16 -46 8
-14 -6 -26 -14 -26 -18 1 -14 27 -43 38 -43 6 0 16 8 22 18 10 16 11 16 8 -2
-5 -32 -34 -43 -57 -22 -25 23 -27 62 -4 75 35 19 -264 97 -481 126 -107 14
-435 19 -536 8z m565 -127 c55 -9 156 -30 224 -47 68 -17 134 -28 147 -25 18
5 22 3 18 -9 -4 -8 -2 -15 4 -15 6 0 18 -3 28 -7 12 -4 15 -3 10 5 -4 7 -3 12
3 12 6 0 15 -8 20 -18 5 -9 26 -23 48 -31 84 -29 303 -145 409 -217 600 -402
964 -1054 991 -1774 36 -953 -537 -1819 -1433 -2166 -122 -47 -287 -92 -439
-119 -138 -25 -460 -31 -620 -11 -500 61 -949 280 -1305 636 -378 377 -598
846 -651 1383 -14 151 -6 401 20 547 10 60 14 108 9 111 -5 3 -2 12 7 19 23
19 18 31 -11 24 -17 -4 -29 -2 -34 7 -11 18 7 49 28 49 15 -1 15 -2 -2 -15
-25 -19 -16 -28 18 -19 29 7 34 28 11 50 -8 9 -15 23 -15 32 0 14 2 14 9 3 18
-28 35 -2 72 109 47 140 167 383 248 505 276 415 690 734 1151 888 157 52 351
93 535 111 82 8 404 -4 500 -18z m-2579 -1702 c-3 -9 3 -27 14 -41 23 -29 19
-43 -5 -23 -34 28 -42 80 -13 80 6 0 7 -7 4 -16z"/>
<path d="M2345 4630 c-433 -32 -846 -194 -1190 -468 -90 -72 -255 -237 -327
-327 -140 -176 -319 -493 -322 -569 -2 -60 17 -40 60 61 192 454 569 846 1021
1064 429 206 942 261 1407 150 66 -16 82 -17 93 -6 7 8 10 16 6 18 -19 11
-246 57 -328 66 -140 15 -300 19 -420 11z"/>
<path d="M3107 4533 c-15 -14 -6 -25 15 -20 12 4 29 0 38 -7 8 -8 77 -40 153
-71 518 -217 934 -638 1142 -1154 276 -688 175 -1467 -267 -2056 -279 -372
-677 -644 -1125 -770 -6 -2 -9 -13 -6 -24 5 -19 9 -18 116 19 331 114 582 267
821 499 345 337 562 761 633 1239 21 148 21 462 -1 606 -103 664 -488 1230
-1059 1557 -123 71 -320 159 -357 159 -14 0 -34 7 -44 15 -21 16 -48 20 -59 8z"/>
<path d="M2095 4457 c-26 -20 -10 -40 25 -32 66 14 120 -54 120 -151 0 -59
-12 -79 -62 -105 -50 -25 -84 -15 -93 28 -3 15 -13 56 -21 90 -17 73 -18 107
-4 133 8 15 6 20 -11 25 -27 9 -84 -2 -97 -18 -14 -16 -3 -34 23 -38 23 -5 39
-50 52 -146 8 -52 6 -68 -10 -98 -22 -44 -17 -52 26 -38 17 7 61 12 97 11 62
0 65 1 101 39 28 31 38 51 44 91 14 103 -12 165 -86 202 -45 23 -78 25 -104 7z"/>
<path d="M2843 4453 c-24 -11 -36 -26 -45 -54 -14 -48 -3 -74 47 -107 37 -24
47 -16 17 12 -12 10 -19 32 -20 57 -2 36 1 41 29 53 46 19 76 10 91 -30 7 -19
18 -34 25 -34 18 0 16 25 -2 40 -8 7 -15 19 -15 26 0 16 -34 39 -70 47 -14 4
-39 -1 -57 -10z"/>
<path d="M3096 4348 c-31 -52 -24 -68 14 -28 32 35 50 37 73 12 23 -25 22 -34
-10 -95 -14 -29 -34 -72 -43 -97 -13 -37 -21 -46 -45 -50 -41 -7 -38 -32 5
-43 19 -5 42 -15 51 -23 18 -16 45 -18 54 -4 3 5 -2 21 -11 35 -16 24 -16 30
1 90 21 80 67 155 94 155 25 0 36 -17 33 -52 -3 -34 15 -46 33 -22 23 30 18
70 -10 88 -13 9 -30 16 -37 16 -7 0 -38 13 -68 30 -78 42 -103 40 -134 -12z"/>
<path d="M1750 4357 c-109 -48 -170 -79 -170 -85 0 -4 14 -16 31 -26 20 -12
39 -37 54 -70 35 -81 44 -100 57 -118 10 -13 9 -22 -2 -43 -24 -45 -1 -51 77
-20 144 58 168 79 153 135 -9 33 -40 40 -40 8 0 -31 -8 -41 -50 -67 -48 -29
-84 -28 -98 4 -28 61 -5 101 44 75 13 -8 26 -11 30 -8 10 11 -28 118 -46 128
-15 8 -19 5 -24 -18 -10 -49 -20 -56 -52 -40 -22 10 -28 19 -26 38 6 38 30 58
80 66 36 5 47 3 54 -10 8 -15 48 -23 48 -10 0 3 -12 21 -26 40 -28 36 -50 41
-94 21z"/>
<path d="M2970 4326 c7 -7 14 -6 21 1 9 9 7 12 -9 10 -14 -1 -18 -5 -12 -11z"/>
<path d="M2897 4283 c3 -10 15 -29 25 -42 35 -46 14 -81 -58 -95 -23 -5 -35
-2 -48 13 -10 11 -22 18 -27 16 -4 -3 -15 5 -23 17 -18 25 -21 12 -7 -25 10
-27 74 -57 119 -57 15 0 44 11 65 25 33 23 37 30 37 68 0 43 -24 92 -40 82 -5
-3 -19 -1 -30 5 -17 9 -19 8 -13 -7z"/>
<path d="M2760 4242 c0 -11 7 -25 16 -33 14 -11 15 -9 12 16 -3 32 -28 47 -28
17z"/>
<path d="M1434 4188 c-15 -13 -49 -32 -75 -44 -26 -13 -55 -33 -63 -46 -14
-22 -14 -28 1 -66 9 -23 22 -42 30 -42 16 0 16 5 2 29 -18 27 -3 70 26 77 33
8 41 1 76 -69 17 -34 43 -77 57 -96 24 -32 24 -34 8 -62 -16 -27 -16 -30 -1
-36 10 -3 20 -2 24 3 11 16 60 44 76 44 21 0 31 30 14 41 -8 5 -24 9 -36 9
-25 0 -99 98 -126 165 -25 67 11 99 60 53 31 -29 46 -13 28 30 -11 26 -20 32
-43 32 -16 0 -42 -10 -58 -22z"/>
<path d="M3540 4118 c-110 -83 -186 -128 -217 -128 -41 0 -44 -23 -5 -46 15
-9 39 -25 53 -35 32 -21 39 -16 39 26 0 27 6 35 29 45 53 22 111 -12 111 -64
-1 -33 -20 -66 -39 -66 -6 0 -11 -8 -11 -17 0 -20 69 -73 94 -73 19 0 19 1 6
35 -7 19 -2 62 22 174 17 82 28 157 25 165 -10 27 -60 19 -107 -16z m53 -45
c3 -5 0 -24 -7 -43 -9 -28 -16 -35 -36 -35 -31 0 -40 38 -14 66 17 19 49 26
57 12z"/>
<path d="M2220 4060 c-642 -117 -1153 -615 -1284 -1253 -39 -187 -39 -446 0
-633 41 -203 141 -435 259 -605 82 -118 287 -320 405 -398 427 -284 930 -354
1406 -196 405 134 751 441 932 825 113 239 155 429 155 695 -1 165 -18 289
-58 430 -31 106 -94 265 -106 265 -13 0 -11 -14 3 -28 9 -9 9 -12 1 -12 -7 0
-19 10 -27 22 -23 33 -19 14 8 -40 37 -73 82 -209 108 -323 20 -91 23 -130 23
-319 0 -171 -4 -233 -18 -300 -45 -207 -124 -397 -238 -570 -84 -127 -290
-334 -418 -419 -301 -200 -653 -293 -989 -262 -383 35 -704 181 -970 443 -224
220 -369 486 -438 808 -26 121 -27 467 -1 593 126 621 612 1108 1233 1234 138
28 472 25 612 -5 194 -42 396 -130 567 -246 126 -85 313 -274 400 -405 39 -57
82 -118 98 -135 l27 -30 0 25 c0 16 -32 75 -82 150 -192 291 -497 525 -823
633 -172 56 -246 67 -470 72 -176 3 -227 0 -315 -16z"/>
<path d="M1152 3975 c-23 -24 -42 -47 -42 -50 0 -3 12 -5 28 -5 34 -1 45 -9
121 -97 56 -67 61 -76 56 -107 -4 -18 -2 -36 3 -40 13 -8 112 72 112 90 0 10
-13 14 -45 14 -45 0 -46 0 -90 68 -24 38 -51 75 -60 82 -11 9 -15 25 -13 49 4
51 -19 50 -70 -4z"/>
<path d="M2302 3978 c-536 -67 -1017 -451 -1207 -963 -81 -218 -113 -482 -86
-703 79 -641 546 -1151 1182 -1294 90 -20 131 -23 309 -23 228 0 296 10 476
70 224 74 413 193 584 364 214 216 346 457 411 753 26 119 36 369 20 490 -25
191 -89 390 -142 444 -24 25 -30 38 -25 57 4 20 -11 49 -73 144 -88 132 -230
285 -345 370 -320 237 -713 340 -1104 291z m483 -72 c76 -17 183 -47 230 -65
84 -33 165 -75 165 -87 0 -7 -69 -152 -154 -321 -85 -170 -156 -315 -158 -322
-3 -11 85 -50 121 -54 9 -1 19 14 27 38 75 250 197 641 200 644 8 8 120 -67
208 -140 50 -42 118 -107 152 -145 99 -114 218 -294 199 -301 -6 -2 -140 -64
-300 -138 l-290 -134 -35 36 c-93 96 -211 157 -325 168 l-50 4 50 -10 c188
-38 319 -132 413 -296 18 -32 32 -51 31 -43 -3 28 1 40 13 40 20 0 137 84 138
99 0 8 3 11 6 8 12 -11 43 13 38 28 -5 11 -2 13 10 9 10 -4 43 14 88 47 40 29
75 55 78 59 3 4 16 13 28 19 16 9 22 19 19 31 -4 15 0 18 22 16 16 -2 31 4 39
15 14 21 52 26 52 8 0 -6 7 -9 15 -5 15 5 16 3 20 -49 2 -16 16 -69 33 -116
17 -47 38 -121 47 -165 18 -86 40 -312 31 -321 -6 -6 -528 43 -593 56 l-41 8
1 -78 c1 -44 2 -79 2 -79 4 0 561 61 589 65 l39 6 -6 -93 c-9 -140 -83 -403
-136 -487 -7 -10 -64 20 -261 138 -138 83 -256 151 -261 151 -5 0 -9 -12 -9
-26 0 -15 -4 -23 -11 -19 -6 4 -5 -2 2 -13 17 -27 5 -39 -18 -21 -17 13 -17
13 0 -7 9 -11 17 -26 17 -32 0 -24 -25 -11 -48 23 -12 19 -26 35 -31 35 -10 0
18 -36 57 -75 12 -12 22 -32 22 -44 0 -36 -28 -37 -64 -2 -44 43 -58 39 -16
-4 19 -19 42 -35 52 -35 13 0 17 -6 14 -22 -2 -17 -11 -24 -33 -26 -24 -2 -35
4 -57 32 -25 33 -26 37 -14 80 14 53 1 137 -27 180 -24 36 -35 32 -35 -11 -1
-60 -46 -243 -64 -261 -15 -15 -16 -13 -10 30 4 28 2 53 -5 64 -9 16 -10 13
-5 -17 9 -57 -12 -67 -89 -40 -93 34 -113 35 -300 17 -255 -24 -236 -19 -234
-69 2 -36 5 -43 24 -45 69 -6 202 -78 301 -164 68 -59 122 -92 216 -132 l38
-17 -4 -69 c-4 -51 -1 -73 9 -81 14 -12 17 0 13 49 -1 13 7 32 19 43 11 10 23
35 27 54 6 34 24 49 24 21 0 -8 4 -17 9 -20 4 -3 6 5 4 17 -3 14 2 29 11 36
10 8 16 29 16 54 0 23 7 48 16 58 14 16 14 19 -4 37 -22 22 -19 67 3 58 8 -3
15 7 19 24 5 28 7 29 73 32 l68 3 7 74 c4 41 9 76 11 77 5 5 490 -157 501
-167 12 -11 -53 -122 -132 -225 -113 -146 -259 -275 -415 -366 -55 -32 -71
-37 -83 -27 -12 10 -13 9 -8 -4 4 -11 -4 -20 -23 -30 -47 -24 -175 -68 -168
-58 3 6 39 31 80 56 l74 46 -4 42 c-12 125 -18 168 -26 160 -4 -4 -9 -34 -10
-65 -2 -45 2 -62 17 -80 l19 -22 -25 17 c-36 25 -52 22 -44 -8 12 -47 -4 -71
-79 -123 -71 -49 -127 -71 -177 -70 -14 0 -43 -5 -65 -11 -59 -16 -215 -26
-215 -14 0 6 17 18 38 27 20 9 48 26 62 37 14 11 -14 0 -62 -26 -81 -43 -90
-45 -140 -40 -113 13 -188 27 -183 35 3 4 -4 6 -16 3 -19 -5 -164 32 -182 47
-9 8 30 99 72 167 17 28 31 54 31 59 -1 15 -62 -88 -92 -153 -15 -35 -30 -63
-32 -63 -28 0 -286 132 -286 146 0 3 9 23 20 44 11 22 18 40 15 40 -2 0 -14
-19 -26 -42 l-21 -42 -18 22 c-10 11 -20 18 -24 15 -3 -4 -6 -1 -6 5 0 7 -6
12 -13 12 -13 0 -64 48 -56 53 2 1 27 10 54 20 106 39 117 33 63 -30 -18 -21
0 -8 41 29 40 38 77 68 82 68 5 0 35 39 66 88 31 48 94 137 141 197 49 63 101
145 123 193 43 91 52 129 16 67 -45 -78 -156 -240 -189 -277 -18 -21 -65 -64
-104 -95 -40 -32 -103 -83 -140 -114 -38 -31 -96 -73 -129 -93 l-59 -36 -28
27 c-15 14 -26 29 -24 32 3 3 47 28 100 55 97 50 206 128 206 147 0 12 -192
-86 -275 -140 l-59 -39 -29 28 c-33 33 -34 31 28 123 24 37 43 67 41 67 -2 0
-28 -32 -56 -71 -35 -46 -56 -67 -63 -60 -11 11 109 151 127 148 6 -1 10 6 8
17 -2 12 1 16 9 10 8 -4 10 -3 5 4 -8 14 2 36 59 122 24 36 81 124 128 195 46
72 103 157 126 190 23 33 31 47 17 30 -64 -77 -158 -200 -204 -266 -27 -41
-63 -91 -80 -112 -17 -21 -49 -75 -71 -120 -22 -45 -61 -108 -88 -140 l-48
-57 -32 37 c-36 41 -40 58 -20 66 8 3 24 22 36 44 l23 38 -42 -40 c-40 -39
-42 -39 -56 -21 -17 24 -18 43 -1 50 6 3 2 3 -10 0 -38 -9 -26 9 29 46 29 19
79 57 112 85 34 27 64 50 68 50 3 0 9 3 12 6 3 3 -2 6 -11 6 -9 0 -41 -18 -72
-39 -30 -21 -60 -38 -67 -38 -6 0 -35 -16 -63 -35 -58 -40 -57 -40 -65 -19 -6
16 62 99 181 220 47 48 49 53 22 41 -39 -16 -119 -79 -180 -142 -26 -27 -50
-47 -53 -45 -2 3 -14 28 -25 57 l-20 52 28 20 c16 11 32 17 36 13 5 -4 5 -1 1
6 -5 8 -19 11 -42 6 -21 -4 -34 -2 -34 4 0 6 -2 16 -5 24 -4 10 11 12 74 10
52 -3 97 1 134 12 30 9 68 16 84 16 27 0 129 30 153 45 21 13 -1 24 -27 14
-15 -5 -94 -26 -177 -45 -165 -39 -237 -40 -256 -3 -10 17 -7 18 52 13 51 -5
79 -1 148 21 146 47 334 144 377 196 6 8 -75 -14 -180 -49 -106 -35 -215 -66
-244 -69 -59 -7 -170 22 -182 47 -12 22 -20 183 -14 267 l6 72 43 17 c24 9 41
20 38 25 -3 5 0 9 7 9 8 0 10 -11 6 -32 l-6 -33 15 28 c8 15 12 31 9 36 -3 5
3 7 13 4 10 -2 27 6 41 21 32 34 16 33 -74 -5 -42 -18 -78 -30 -81 -27 -3 3
-2 29 2 57 5 43 11 52 30 57 13 3 29 13 36 21 11 14 9 15 -19 9 l-32 -7 14 48
c68 229 156 392 312 579 26 30 35 36 45 26 7 -7 21 -12 32 -12 18 0 18 1 3 18
-10 10 -17 23 -17 29 0 12 56 63 69 63 4 0 15 -16 24 -36 19 -38 53 -57 127
-69 25 -4 66 -17 93 -30 79 -37 31 3 -55 46 -72 36 -158 101 -158 119 0 22
318 219 355 220 7 0 10 -138 10 -395 0 -259 3 -394 10 -392 6 2 18 20 29 41
17 36 18 44 2 194 -14 146 -21 346 -18 503 l2 66 103 31 c121 37 185 50 293
60 105 9 332 -2 419 -22z m275 -486 c0 -21 -26 -38 -38 -25 -4 4 -1 10 6 12 6
3 12 11 12 19 0 8 5 14 10 14 6 0 10 -9 10 -20z"/>
<path d="M2322 3855 c13 -86 122 -790 123 -792 3 -7 145 44 145 52 0 12 -261
758 -268 765 -2 3 -3 -8 0 -25z"/>
<path d="M1403 3325 c0 -33 2 -45 4 -27 2 18 2 45 0 60 -2 15 -4 0 -4 -33z"/>
<path d="M1394 3070 c0 -85 2 -120 3 -77 2 42 2 112 0 155 -1 42 -3 7 -3 -78z"/>
<path d="M1332 3095 c0 -16 2 -22 5 -12 2 9 2 23 0 30 -3 6 -5 -1 -5 -18z"/>
<path d="M2678 3093 c18 -2 45 -2 60 0 15 2 0 4 -33 4 -33 0 -45 -2 -27 -4z"/>
<path d="M2608 3083 c7 -3 16 -2 19 1 4 3 -2 6 -13 5 -11 0 -14 -3 -6 -6z"/>
<path d="M2010 3047 c0 -7 -14 -30 -31 -52 l-31 -40 36 37 c31 32 47 68 31 68
-3 0 -5 -6 -5 -13z"/>
<path d="M2620 3035 c0 -14 7 -55 16 -91 17 -65 17 -66 47 -60 16 3 36 6 43 6
10 0 11 6 4 24 -5 13 -12 52 -16 85 l-7 61 -43 0 c-40 0 -44 -2 -44 -25z"/>
<path d="M2763 3044 c-6 -17 3 -139 12 -154 4 -6 18 -10 33 -10 27 0 27 0 27
76 0 63 -3 78 -20 90 -25 18 -44 18 -52 -2z"/>
<path d="M1322 3025 c0 -16 2 -22 5 -12 2 9 2 23 0 30 -3 6 -5 -1 -5 -18z"/>
<path d="M2514 3030 c-35 -14 -35 -24 -2 -99 31 -71 32 -72 62 -65 45 9 46 11
31 57 -7 23 -17 58 -22 77 -9 37 -30 46 -69 30z"/>
<path d="M1174 3008 l-19 -23 23 19 c21 18 27 26 19 26 -2 0 -12 -10 -23 -22z"/>
<path d="M1266 3005 c-10 -8 -23 -12 -29 -8 -6 3 -8 2 -5 -3 3 -5 -12 -20 -33
-34 -41 -25 -55 -49 -18 -29 18 9 102 70 118 85 12 11 -17 1 -33 -11z"/>
<path d="M2062 2999 c-6 -8 -80 -69 -166 -134 -85 -66 -153 -121 -151 -123 7
-7 152 80 228 136 40 29 80 67 89 85 17 31 18 31 24 10 4 -16 14 -23 30 -23
30 0 30 -6 2 -31 -23 -20 -23 -20 -1 -10 30 15 33 14 33 -9 0 -14 -5 -18 -17
-13 -10 3 -15 2 -10 -2 4 -5 0 -17 -10 -27 -18 -21 -17 -25 13 -30 15 -2 36
13 73 55 29 31 47 57 40 57 -8 0 -48 17 -91 38 -67 32 -77 35 -86 21z"/>
<path d="M2890 2943 l1 -78 35 -16 34 -17 -6 49 c-5 36 -2 55 10 73 22 34 20
41 -9 54 -58 27 -65 20 -65 -65z"/>
<path d="M2393 2975 c-13 -9 -23 -20 -23 -25 0 -8 70 -130 75 -130 12 0 65 23
64 28 -1 22 -68 137 -80 140 -8 1 -24 -5 -36 -13z"/>
<path d="M2294 2938 l-19 -23 23 19 c21 18 27 26 19 26 -2 0 -12 -10 -23 -22z"/>
<path d="M3006 2929 c-10 -49 -7 -94 6 -107 19 -19 38 -14 38 12 0 13 9 35 20
49 25 31 25 39 2 60 -31 28 -59 22 -66 -14z"/>
<path d="M1311 2934 c0 -11 3 -14 6 -6 3 7 2 16 -1 19 -3 4 -6 -2 -5 -13z"/>
<path d="M2297 2902 c-25 -28 -21 -42 27 -97 44 -50 44 -50 65 -31 12 11 21
23 21 28 0 18 -70 118 -83 118 -8 0 -21 -8 -30 -18z"/>
<path d="M1273 2886 c-15 -13 -48 -34 -73 -47 l-45 -24 31 -3 c48 -5 104 22
105 50 1 16 4 12 9 -12 7 -34 7 -34 9 13 0 26 -1 47 -3 47 -3 0 -17 -11 -33
-24z"/>
<path d="M1393 2840 c0 -30 2 -43 4 -27 2 15 2 39 0 55 -2 15 -4 2 -4 -28z"/>
<path d="M3116 2859 c-21 -31 -21 -85 1 -93 19 -8 63 30 63 54 0 9 -11 27 -24
39 l-24 22 -16 -22z"/>
<path d="M2596 2852 c-2 -4 -1 -23 4 -42 l8 -35 1 43 c1 41 -3 50 -13 34z"/>
<path d="M1960 2797 c-36 -28 -79 -62 -95 -75 -37 -27 -5 -18 45 14 32 20 131
114 120 114 -3 0 -34 -24 -70 -53z"/>
<path d="M2642 2830 c0 -14 2 -19 5 -12 2 6 2 18 0 25 -3 6 -5 1 -5 -13z"/>
<path d="M2179 2813 c-13 -16 -12 -17 4 -4 16 13 21 21 13 21 -2 0 -10 -8 -17
-17z"/>
<path d="M2210 2811 c-15 -29 -12 -46 10 -66 19 -17 20 -17 21 1 1 14 3 13 8
-6 7 -27 54 -41 74 -21 14 14 -25 68 -45 63 -7 -2 -10 0 -5 4 9 9 -22 44 -39
44 -7 0 -18 -9 -24 -19z"/>
<path d="M1285 2706 c-4 -52 -3 -106 1 -120 6 -18 9 12 11 94 0 66 0 120 -2
120 -2 0 -6 -42 -10 -94z"/>
<path d="M2911 2759 c-11 -33 -38 -35 -33 -3 2 15 1 16 -7 5 -5 -8 -16 -11
-25 -8 -8 3 -18 2 -21 -3 -3 -5 -16 -9 -28 -8 -12 0 -34 -3 -50 -7 -23 -6 -26
-5 -22 11 4 14 2 13 -6 -2 -7 -14 -25 -24 -48 -28 -42 -7 -266 -92 -330 -127
l-45 -23 32 -13 c38 -15 55 -44 46 -78 -11 -44 24 -29 100 43 117 111 211 154
363 168 56 5 81 12 96 27 17 17 18 22 6 31 -8 6 -13 19 -11 29 6 28 -5 19 -17
-14z"/>
<path d="M3022 2743 c-1 -24 -4 -43 -7 -43 -3 0 -16 9 -27 20 -17 15 -24 17
-30 8 -5 -9 15 -36 56 -78 134 -139 179 -223 181 -338 0 -69 2 -74 30 -92 17
-11 32 -20 36 -20 9 0 39 93 39 122 0 15 -5 30 -11 34 -6 3 -9 14 -6 24 3 11
0 17 -7 14 -6 -2 -16 7 -23 21 -9 21 -8 27 5 36 14 8 12 9 -8 3 -23 -6 -24 -6
-10 11 9 11 10 16 3 11 -19 -11 -36 3 -23 19 8 10 6 13 -7 11 -13 -1 -17 5
-15 24 1 17 -1 21 -6 12 -7 -10 -20 -1 -51 35 -40 44 -42 51 -37 93 5 44 5 44
-5 10 -14 -46 -14 -46 -43 -19 -19 18 -26 37 -29 74 -3 49 -3 49 -5 8z"/>
<path d="M2586 2755 c-3 -9 -6 -24 -5 -33 0 -9 5 -4 10 12 9 32 6 48 -5 21z"/>
<path d="M3182 2740 c-10 -17 -9 -25 4 -45 18 -28 25 -30 42 -13 24 24 8 78
-23 78 -5 0 -16 -9 -23 -20z"/>
<path d="M1942 2725 c-17 -14 -61 -39 -99 -57 -37 -17 -111 -61 -163 -99 -102
-72 -214 -119 -345 -145 l-70 -14 83 6 c125 8 186 28 307 101 115 69 263 171
304 210 32 31 20 29 -17 -2z"/>
<path d="M2460 2731 c-5 -11 -10 -30 -9 -43 1 -18 3 -17 8 8 4 17 11 36 15 42
4 7 5 12 2 12 -3 0 -10 -9 -16 -19z"/>
<path d="M2410 2711 c-9 -23 -9 -34 0 -48 10 -16 11 -15 6 6 -3 13 0 33 5 43
6 11 9 22 6 24 -2 3 -10 -9 -17 -25z"/>
<path d="M2496 2714 c-4 -14 -5 -28 -3 -31 3 -2 8 8 11 23 4 14 5 28 3 31 -3
2 -8 -8 -11 -23z"/>
<path d="M2180 2717 c0 -9 6 -17 13 -18 6 0 2 -4 -10 -9 -28 -12 -29 -22 -2
-46 20 -18 21 -18 35 1 10 14 14 15 14 4 0 -8 -5 -20 -12 -27 -7 -7 -8 -12 -2
-12 6 0 19 9 29 20 19 20 18 22 -23 63 -30 30 -42 37 -42 24z"/>
<path d="M2345 2709 c-4 -6 -5 -12 -2 -15 2 -3 7 2 10 11 7 17 1 20 -8 4z"/>
<path d="M2366 2693 c-2 -10 -8 -29 -11 -43 -5 -16 -4 -22 3 -15 5 6 12 25 15
43 7 34 2 44 -7 15z"/>
<path d="M2326 2663 c-6 -14 -5 -15 5 -6 7 7 10 15 7 18 -3 3 -9 -2 -12 -12z"/>
<path d="M2078 2656 c-20 -7 -59 -27 -85 -44 -57 -36 -231 -122 -248 -122 -7
0 -84 -23 -171 -51 -89 -28 -192 -54 -234 -59 -41 -4 -88 -14 -105 -21 l-30
-14 51 -3 c84 -5 307 34 418 74 56 20 113 38 129 41 29 6 35 -5 15 -25 -9 -9
-9 -12 -1 -12 7 0 40 27 75 60 35 33 78 67 96 76 26 12 32 19 26 36 -5 15 -3
20 7 16 51 -19 62 -20 56 -5 -5 13 9 37 23 37 3 0 4 -17 2 -37 -3 -34 0 -40
28 -56 31 -18 32 -18 45 0 8 10 15 24 15 31 0 14 -16 16 -25 2 -11 -18 -27
-11 -20 9 3 11 -1 26 -11 35 -13 13 -14 19 -4 31 16 19 0 19 -52 1z"/>
<path d="M1527 2610 c-33 -26 -137 -73 -200 -90 -26 -7 -45 -15 -43 -18 8 -8
148 38 198 65 26 14 55 34 64 44 22 25 13 24 -19 -1z"/>
<path d="M3252 2600 c12 -35 24 -45 31 -27 7 19 -11 57 -27 57 -12 0 -13 -5
-4 -30z"/>
<path d="M3302 2595 c0 -16 2 -22 5 -12 2 9 2 23 0 30 -3 6 -5 -1 -5 -18z"/>
<path d="M1133 2550 c0 -25 2 -35 4 -22 2 12 2 32 0 45 -2 12 -4 2 -4 -23z"/>
<path d="M1183 2545 c4 -26 8 -49 10 -52 3 -2 19 2 37 9 l32 13 -28 25 -27 25
18 -30 17 -30 -21 24 c-12 13 -21 29 -21 37 0 7 -5 16 -11 20 -8 5 -10 -7 -6
-41z"/>
<path d="M2683 2583 c9 -2 25 -2 35 0 9 3 1 5 -18 5 -19 0 -27 -2 -17 -5z"/>
<path d="M2785 2557 c28 -13 52 -20 54 -15 6 17 -12 27 -59 33 l-45 7 50 -25z"/>
<path d="M2614 2512 c-17 -9 -46 -29 -65 -44 -29 -23 -31 -28 -16 -34 13 -4
23 0 34 15 8 13 33 36 56 52 44 32 40 38 -9 11z"/>
<path d="M2648 2506 c-20 -12 -46 -30 -57 -40 -18 -16 -19 -20 -5 -34 20 -20
97 -33 145 -26 59 10 57 24 -3 25 -29 0 -73 4 -98 7 l-44 7 25 17 c14 9 32 18
40 19 27 6 109 -12 116 -25 17 -29 47 -23 65 13 26 50 12 61 -76 60 -54 -1
-80 -6 -108 -23z"/>
<path d="M2096 2493 c-14 -61 -22 -164 -14 -169 4 -3 8 12 8 34 0 23 11 59 25
87 14 26 24 48 23 49 -2 1 -10 7 -20 14 -14 11 -17 9 -22 -15z"/>
<path d="M1325 2484 c-126 -23 -229 -56 -242 -77 -10 -17 28 -37 71 -37 41 1
118 28 84 29 -19 1 -25 26 -9 36 5 3 60 19 122 35 61 16 114 32 117 35 7 7 9
7 -143 -21z"/>
<path d="M2334 2492 c-11 -9 -34 -34 -49 -55 -15 -21 -34 -36 -40 -33 -8 3
-11 -2 -8 -12 6 -26 -51 -75 -87 -75 -37 0 -39 -20 -4 -35 14 -7 30 -26 36
-42 12 -37 21 -37 47 -4 l21 27 0 -41 c0 -48 14 -61 41 -36 24 22 24 34 0 34
-11 0 -23 12 -31 30 -10 25 -9 33 8 57 11 15 27 44 36 63 9 19 27 53 41 75 37
60 32 83 -11 47z"/>
<path d="M2868 2425 c-3 -36 -12 -73 -19 -82 -13 -15 -11 -14 19 1 18 9 36 24
39 31 6 18 -16 115 -27 115 -4 0 -10 -29 -12 -65z"/>
<path d="M2640 2460 c-12 -8 -11 -10 7 -10 12 0 30 -3 40 -6 16 -6 16 -5 -2 9
-24 19 -26 20 -45 7z"/>
<path d="M3007 2463 c-9 -8 -9 -50 -1 -81 5 -16 12 -21 24 -17 27 9 90 -25 97
-53 3 -12 3 -38 0 -55 -3 -22 1 -39 13 -55 l19 -23 6 44 c5 31 1 64 -14 115
-18 58 -28 76 -60 101 -37 30 -70 39 -84 24z"/>
<path d="M2728 2443 c6 -2 18 -2 25 0 6 3 1 5 -13 5 -14 0 -19 -2 -12 -5z"/>
<path d="M1945 2420 c3 -5 8 -10 11 -10 2 0 4 5 4 10 0 6 -5 10 -11 10 -5 0
-7 -4 -4 -10z"/>
<path d="M1905 2410 c-3 -5 -2 -10 4 -10 5 0 13 5 16 10 3 6 2 10 -4 10 -5 0
-13 -4 -16 -10z"/>
<path d="M1775 2400 c-3 -5 -2 -10 4 -10 5 0 13 5 16 10 3 6 2 10 -4 10 -5 0
-13 -4 -16 -10z"/>
<path d="M2794 2395 c-10 -8 -14 -15 -8 -15 6 0 17 7 24 15 16 19 9 19 -16 0z"/>
<path d="M1854 2384 c-18 -15 -18 -15 8 -11 15 2 29 -1 32 -7 3 -8 5 -8 5 0 2
24 -25 34 -45 18z"/>
<path d="M1667 2335 c-95 -60 -96 -66 -2 -16 87 47 107 61 85 60 -8 0 -46 -20
-83 -44z"/>
<path d="M1992 2345 c0 -22 6 -56 13 -75 17 -44 17 -32 0 50 -11 56 -13 60
-13 25z"/>
<path d="M1804 2359 c-3 -6 -2 -15 2 -19 12 -12 38 5 30 19 -9 14 -23 14 -32
0z"/>
<path d="M1762 2328 c3 -7 12 -14 21 -16 12 -2 15 1 11 12 -7 19 -38 22 -32 4z"/>
<path d="M2334 2328 c-4 -6 -3 -8 4 -4 6 3 15 -2 21 -11 9 -16 10 -16 11 5 0
23 -24 31 -36 10z"/>
<path d="M1093 2313 c8 -8 24 -13 37 -11 17 2 15 5 -15 14 -32 10 -35 10 -22
-3z"/>
<path d="M1716 2311 c-7 -10 20 -41 35 -41 6 0 9 10 7 22 -3 24 -32 36 -42 19z"/>
<path d="M2874 2295 c-18 -14 -18 -15 6 -6 18 6 33 5 50 -5 30 -16 76 -18 86
-3 12 20 -11 31 -40 18 -20 -10 -29 -10 -38 -1 -16 16 -40 15 -64 -3z"/>
<path d="M1680 2292 c0 -5 9 -17 20 -27 22 -20 26 -9 6 18 -14 18 -26 22 -26
9z"/>
<path d="M2814 2285 c-8 -19 2 -45 16 -45 8 0 7 6 0 20 -6 11 -8 25 -5 30 3 6
4 10 0 10 -3 0 -8 -7 -11 -15z"/>
<path d="M2306 2278 c3 -4 12 -8 20 -8 8 0 14 4 14 8 0 4 -9 8 -19 8 -11 0
-17 -4 -15 -8z"/>
<path d="M2081 2238 c-13 -36 -48 -78 -67 -78 -13 0 -39 -28 -33 -35 3 -2 27
6 55 19 49 23 74 55 74 96 0 33 -18 31 -29 -2z"/>
<path d="M3100 2255 c7 -9 15 -13 17 -11 7 7 -7 26 -19 26 -6 0 -6 -6 2 -15z"/>
<path d="M1540 2230 c-25 -11 -38 -19 -30 -19 8 0 35 9 60 19 25 10 38 19 30
18 -8 0 -35 -8 -60 -18z"/>
<path d="M1852 2221 c-6 -17 -9 -31 -6 -31 7 0 25 52 20 57 -2 2 -8 -10 -14
-26z"/>
<path d="M3040 2230 c0 -14 5 -32 10 -40 8 -12 10 -10 10 10 0 14 -5 32 -10
40 -8 12 -10 10 -10 -10z"/>
<path d="M1668 2223 c7 -3 16 -2 19 1 4 3 -2 6 -13 5 -11 0 -14 -3 -6 -6z"/>
<path d="M1946 2208 c-16 -61 -2 -128 27 -128 5 0 1 8 -9 17 -13 14 -15 28
-10 75 6 60 3 75 -8 36z"/>
<path d="M1590 2210 c-26 -16 -3 -22 27 -6 23 13 24 15 8 15 -11 1 -27 -3 -35
-9z"/>
<path d="M1872 2180 c0 -14 2 -19 5 -12 2 6 2 18 0 25 -3 6 -5 1 -5 -13z"/>
<path d="M2808 2179 c-34 -18 -56 -48 -25 -35 64 26 88 29 124 13 21 -8 46
-18 55 -21 20 -6 53 -54 44 -63 -4 -4 -21 -1 -39 6 -38 15 -163 51 -177 51 -5
0 -10 -7 -10 -15 0 -11 11 -15 40 -15 47 0 136 -33 168 -62 l22 -21 0 20 c0
12 5 23 12 25 9 3 7 17 -6 52 -16 40 -25 51 -63 67 -56 24 -98 24 -145 -2z"/>
<path d="M1503 2112 c-78 -62 -109 -92 -53 -51 19 14 59 43 88 63 28 21 52 40
52 42 0 11 -21 -2 -87 -54z"/>
<path d="M2100 2123 c-73 -43 -102 -64 -96 -70 2 -3 15 2 28 11 27 19 57 21
72 3 6 -7 10 -10 9 -8 -2 2 9 19 23 38 40 53 27 63 -36 26z"/>
<path d="M1862 2125 c0 -16 2 -22 5 -12 2 9 2 23 0 30 -3 6 -5 -1 -5 -18z"/>
<path d="M2226 2135 c4 -8 10 -12 15 -9 14 8 10 24 -6 24 -9 0 -12 -6 -9 -15z"/>
<path d="M1510 2069 c-57 -42 -107 -88 -80 -73 18 10 140 106 140 111 0 6 -6
3 -60 -38z"/>
<path d="M1757 2053 c-27 -62 -71 -202 -65 -209 2 -2 15 29 27 69 13 39 34 99
47 131 31 77 24 83 -9 9z"/>
<path d="M1900 2096 c0 -16 20 -44 37 -50 13 -5 11 0 -7 21 -14 15 -26 30 -27
32 -2 2 -3 1 -3 -3z"/>
<path d="M1852 2070 c0 -14 2 -19 5 -12 2 6 2 18 0 25 -3 6 -5 1 -5 -13z"/>
<path d="M1539 2043 c-32 -36 -53 -63 -47 -63 2 0 21 20 41 45 42 49 45 61 6
18z"/>
<path d="M2225 2040 c-16 -7 -17 -9 -3 -9 9 -1 20 4 23 9 7 11 7 11 -20 0z"/>
<path d="M3187 2010 c15 -16 29 -30 31 -30 2 0 -6 14 -18 30 -12 17 -26 30
-32 30 -5 0 3 -13 19 -30z"/>
<path d="M2075 2000 c-3 -6 1 -7 9 -4 18 7 21 14 7 14 -6 0 -13 -4 -16 -10z"/>
<path d="M1974 1985 c-28 -6 -59 -17 -70 -23 -19 -11 -19 -11 1 -12 29 0 97
20 120 36 23 16 18 16 -51 -1z"/>
<path d="M2291 1980 c0 -14 4 -34 9 -45 7 -17 9 -16 9 10 0 17 -4 37 -9 45 -8
12 -10 10 -9 -10z"/>
<path d="M1856 1973 c-6 -14 -5 -15 5 -6 7 7 10 15 7 18 -3 3 -9 -2 -12 -12z"/>
<path d="M2045 1980 c-4 -6 -38 -33 -77 -60 -81 -57 -84 -68 -4 -15 49 32 107
85 93 85 -3 0 -9 -5 -12 -10z"/>
<path d="M2188 1953 c-21 -26 -112 -181 -95 -163 15 16 118 180 113 180 -2 0
-10 -8 -18 -17z"/>
<path d="M2041 1920 c-24 -22 -39 -40 -34 -40 5 0 27 18 48 40 50 51 43 51
-14 0z"/>
<path d="M3160 1952 c0 -12 19 -26 26 -19 2 2 -2 10 -11 17 -9 8 -15 8 -15 2z"/>
<path d="M1831 1919 c-6 -18 -9 -34 -7 -36 2 -2 9 10 15 28 6 18 9 34 7 36 -2
2 -9 -10 -15 -28z"/>
<path d="M1665 1930 c-3 -5 -1 -10 4 -10 6 0 11 5 11 10 0 6 -2 10 -4 10 -3 0
-8 -4 -11 -10z"/>
<path d="M2352 1910 c0 -14 2 -19 5 -12 2 6 2 18 0 25 -3 6 -5 1 -5 -13z"/>
<path d="M1645 1899 c-4 -6 -5 -12 -2 -15 2 -3 7 2 10 11 7 17 1 20 -8 4z"/>
<path d="M1786 1885 c-9 -26 -7 -32 5 -12 6 10 9 21 6 23 -2 3 -7 -2 -11 -11z"/>
<path d="M1627 1858 c-76 -182 -100 -247 -76 -204 18 30 89 209 85 213 -2 2
-6 -2 -9 -9z"/>
<path d="M2307 1800 c-3 -38 -17 -84 -39 -129 -37 -78 -26 -79 16 -2 26 48 51
177 36 186 -4 3 -10 -22 -13 -55z"/>
<path d="M1757 1815 c-9 -19 -15 -35 -12 -35 7 0 37 61 33 66 -3 2 -12 -12
-21 -31z"/>
<path d="M2229 1828 c-12 -23 -12 -23 10 -4 23 21 26 26 11 26 -5 0 -15 -10
-21 -22z"/>
<path d="M2261 1813 c-10 -26 -10 -27 4 -9 8 11 15 23 15 28 0 15 -7 8 -19
-19z"/>
<path d="M2271 1774 c0 -11 3 -14 6 -6 3 7 2 16 -1 19 -3 4 -6 -2 -5 -13z"/>
<path d="M2382 1750 c0 -14 2 -19 5 -12 2 6 2 18 0 25 -3 6 -5 1 -5 -13z"/>
<path d="M2261 1734 c0 -11 3 -14 6 -6 3 7 2 16 -1 19 -3 4 -6 -2 -5 -13z"/>
<path d="M2039 1723 c-29 -35 -41 -53 -36 -53 2 0 17 16 31 35 28 36 31 49 5
18z"/>
<path d="M1684 1704 c-18 -14 -18 -15 4 -4 12 6 22 13 22 15 0 8 -5 6 -26 -11z"/>
<path d="M2415 1680 c10 -11 20 -20 23 -20 3 0 -3 9 -13 20 -10 11 -20 20 -23
20 -3 0 3 -9 13 -20z"/>
<path d="M2610 1610 c8 -5 20 -10 25 -10 6 0 3 5 -5 10 -8 5 -19 10 -25 10 -5
0 -3 -5 5 -10z"/>
<path d="M2037 1558 c-8 -12 -30 -51 -50 -84 -19 -34 -43 -74 -53 -90 -11 -15
-14 -25 -7 -21 15 9 135 209 129 214 -2 3 -11 -6 -19 -19z"/>
<path d="M2150 1490 c-7 -28 -10 -53 -7 -56 3 -3 10 18 16 47 15 68 7 75 -9 9z"/>
<path d="M2192 1500 c0 -14 2 -19 5 -12 2 6 2 18 0 25 -3 6 -5 1 -5 -13z"/>
<path d="M3071 1474 c0 -11 3 -14 6 -6 3 7 2 16 -1 19 -3 4 -6 -2 -5 -13z"/>
<path d="M2553 1434 c-20 -27 -73 -139 -73 -152 0 -12 52 65 76 111 29 57 27
83 -3 41z"/>
<path d="M3160 1422 c22 -18 23 -23 11 -48 -11 -25 -11 -26 4 -14 22 18 15 50
-15 68 l-25 14 25 -20z"/>
<path d="M2472 1368 c-36 -54 -44 -68 -39 -68 2 0 21 25 41 55 20 30 34 55 32
55 -3 0 -18 -19 -34 -42z"/>
<path d="M2915 1360 c11 -5 27 -9 35 -9 13 -1 13 0 0 9 -8 5 -24 9 -35 9 l-20
0 20 -9z"/>
<path d="M2112 1311 c-7 -21 -12 -49 -11 -62 0 -13 7 3 15 35 16 67 13 86 -4
27z"/>
<path d="M2980 1346 c0 -2 7 -7 16 -10 8 -3 12 -2 9 4 -6 10 -25 14 -25 6z"/>
<path d="M2875 1330 c-3 -5 1 -10 9 -10 9 0 16 5 16 10 0 6 -4 10 -9 10 -6 0
-13 -4 -16 -10z"/>
<path d="M2841 1306 c-7 -8 -8 -17 -3 -20 6 -3 15 1 21 8 7 8 8 17 3 20 -6 3
-15 -1 -21 -8z"/>
<path d="M2911 1287 c-13 -21 -12 -21 5 -5 10 10 16 20 13 22 -3 3 -11 -5 -18
-17z"/>
<path d="M2956 1296 c13 -33 -28 -86 -101 -134 -120 -77 -113 -72 -91 -65 14
5 17 3 11 -7 -13 -22 52 21 102 67 25 23 50 40 56 36 6 -3 7 -1 4 4 -4 6 2 18
13 28 21 19 27 69 10 80 -5 3 -7 0 -4 -9z m-146 -181 c-7 -8 -17 -15 -23 -15
-6 0 -2 7 9 15 25 19 30 19 14 0z"/>
<path d="M2186 1265 c-9 -26 -7 -32 5 -12 6 10 9 21 6 23 -2 3 -7 -2 -11 -11z"/>
<path d="M2805 1270 c3 -5 8 -10 11 -10 2 0 4 5 4 10 0 6 -5 10 -11 10 -5 0
-7 -4 -4 -10z"/>
<path d="M2991 1266 c0 -11 -9 -29 -18 -40 -17 -20 -16 -20 6 0 14 13 21 29
18 40 -4 18 -5 18 -6 0z"/>
<path d="M2252 1245 c-17 -37 -14 -45 4 -12 9 16 14 31 11 33 -2 2 -9 -7 -15
-21z"/>
<path d="M2445 1237 c-85 -36 -145 -65 -145 -71 0 -4 231 93 239 100 12 11
-22 0 -94 -29z"/>
<path d="M2755 1250 c-3 -5 3 -10 14 -10 11 0 23 5 26 10 3 6 -3 10 -14 10
-11 0 -23 -4 -26 -10z"/>
<path d="M2706 1219 c-20 -19 -20 -19 12 -8 18 6 29 15 26 20 -8 13 -16 10
-38 -12z"/>
<path d="M2430 1190 c-9 -6 -10 -10 -3 -10 6 0 15 5 18 10 8 12 4 12 -15 0z"/>
<path d="M2644 1185 c-10 -8 -14 -14 -9 -15 15 0 40 18 34 24 -3 3 -14 -1 -25
-9z"/>
<path d="M2312 1138 c-51 -22 -91 -43 -89 -45 5 -5 169 65 182 78 14 14 7 11
-93 -33z"/>
<path d="M3833 3917 c-18 -12 -32 -31 -33 -41 0 -17 2 -18 18 -4 25 22 44 26
70 17 31 -12 30 -61 -2 -82 -13 -9 -51 -41 -85 -73 -51 -47 -65 -55 -86 -50
-14 4 -30 4 -36 1 -11 -7 81 -115 99 -115 8 0 12 15 12 44 0 41 4 48 66 106
73 67 104 86 129 76 17 -6 17 -28 0 -83 -9 -29 4 -29 39 -2 46 36 42 44 -100
195 -37 39 -47 40 -91 11z"/>
<path d="M993 3814 c-35 -34 -46 -81 -17 -70 54 21 63 18 119 -29 85 -73 67
-100 -46 -66 -111 33 -136 35 -175 10 -47 -29 -73 -67 -53 -79 7 -5 24 -7 36
-3 36 8 65 -3 109 -44 23 -21 53 -48 68 -60 17 -14 26 -31 26 -52 0 -48 20
-49 61 -1 44 51 39 70 -19 70 -23 0 -42 8 -56 23 -12 12 -34 32 -49 44 -26 22
-37 63 -18 63 5 0 48 -9 96 -21 47 -11 105 -19 128 -17 35 3 43 7 45 26 4 29
-18 55 -111 129 -40 32 -73 68 -79 84 -12 36 -24 35 -65 -7z"/>
<path d="M4105 3632 c-12 -21 -41 -51 -70 -69 -28 -17 -64 -43 -81 -57 -35
-29 -54 -32 -72 -14 -9 9 -15 9 -24 0 -10 -10 -9 -19 6 -45 10 -18 27 -48 38
-67 54 -95 94 -124 144 -101 37 16 31 41 -10 41 -28 0 -40 7 -65 39 -42 53
-41 84 3 105 60 28 91 13 66 -34 -21 -40 3 -45 62 -14 67 36 75 61 21 66 -32
3 -38 7 -41 29 -4 37 20 54 60 43 26 -8 37 -19 52 -57 18 -44 18 -48 3 -65
-37 -41 -7 -59 31 -19 34 36 27 69 -32 161 -30 46 -58 86 -63 89 -5 3 -18 -11
-28 -31z"/>
<path d="M725 3438 c-9 -24 -20 -49 -23 -57 -4 -11 5 -12 50 -7 39 5 58 4 63
-5 4 -6 33 -22 64 -36 93 -41 109 -69 76 -132 -27 -53 -75 -54 -176 -6 -48 23
-78 44 -90 65 -10 16 -22 30 -26 30 -10 -1 -53 -90 -53 -109 0 -10 9 -12 34
-7 41 8 146 -18 162 -39 16 -21 102 -29 133 -13 37 20 60 58 67 109 6 43 4 50
-27 83 -19 21 -68 54 -109 75 -50 25 -79 46 -88 64 -19 39 -37 33 -57 -15z"/>
<path d="M4233 3298 c-33 -16 -46 -59 -38 -123 11 -93 -36 -134 -98 -85 -49
39 -44 76 15 129 41 36 18 47 -42 20 l-43 -19 6 -53 c8 -77 25 -107 74 -128
34 -14 49 -16 73 -8 36 13 78 75 61 92 -19 19 -14 104 9 127 19 19 22 19 50 5
47 -24 55 -91 12 -110 -21 -10 -32 -45 -12 -45 5 0 25 8 45 17 32 15 35 20 35
61 0 101 -69 158 -147 120z"/>
<path d="M483 3211 c4 -17 1 -28 -11 -37 -16 -12 -16 -14 0 -30 16 -17 18 -16
28 10 14 38 13 51 -7 67 -15 13 -16 11 -10 -10z"/>
<path d="M3830 3161 c0 -5 7 -15 17 -22 15 -13 15 -12 4 9 -12 23 -21 28 -21
13z"/>
<path d="M450 3124 c0 -5 5 -15 10 -20 13 -13 2 -44 -16 -44 -14 0 -24 -31
-48 -145 -43 -210 -52 -504 -22 -718 89 -632 455 -1198 989 -1529 464 -288
999 -388 1545 -287 95 17 132 33 132 57 0 5 -34 1 -76 -9 -189 -45 -484 -62
-689 -39 -393 44 -776 202 -1089 448 -39 30 -121 105 -181 166 -521 523 -730
1284 -550 1999 23 90 24 102 10 116 -8 8 -15 11 -15 5z"/>
<path d="M629 2573 l-15 -47 -54 2 -55 2 25 -21 c14 -12 33 -27 44 -34 17 -13
18 -16 2 -61 -9 -26 -16 -49 -16 -51 0 -3 20 10 44 28 l45 32 40 -33 c45 -35
48 -32 26 29 l-14 42 45 32 46 32 -58 5 c-57 5 -59 6 -69 42 -15 53 -20 53
-36 1z"/>
<path d="M4347 2600 c-3 -8 -11 -32 -17 -52 -11 -36 -13 -37 -63 -40 l-51 -3
42 -27 41 -28 -14 -41 c-22 -61 -19 -64 27 -30 l42 31 30 -23 c55 -41 57 -41
41 4 -21 58 -20 61 25 89 l41 25 -52 5 -52 5 -18 50 c-10 30 -19 44 -22 35z"/>
<path d="M1011 1509 c-14 -5 -50 -31 -80 -56 -31 -26 -58 -48 -60 -50 -10 -7
-17 -91 -10 -118 5 -15 25 -46 46 -67 33 -34 42 -38 87 -38 59 0 119 27 164
73 28 29 33 43 38 98 l6 64 -49 48 c-53 51 -97 65 -142 46z m81 -51 c49 -14
62 -37 55 -102 -4 -43 -10 -55 -42 -83 -44 -38 -97 -56 -129 -43 -34 13 -76
68 -76 99 0 34 29 73 83 112 45 33 53 34 109 17z"/>
<path d="M3803 1415 c-9 -26 5 -73 35 -118 54 -79 96 -169 94 -199 -5 -63 24
-57 76 16 35 48 34 52 -18 58 -20 2 -27 11 -34 41 -8 31 -6 42 11 65 30 41 76
42 112 3 16 -17 33 -31 38 -31 13 0 73 77 73 95 0 13 -5 15 -22 9 -37 -13 -56
-9 -195 34 -147 47 -161 49 -170 27z m141 -75 c23 -23 15 -50 -15 -50 -31 0
-59 28 -59 58 0 21 3 23 28 17 15 -3 36 -15 46 -25z"/>
<path d="M1258 1296 c3 -30 -2 -42 -40 -83 -24 -26 -52 -60 -61 -75 -16 -26
-23 -30 -79 -42 -38 -9 -35 -25 10 -69 46 -45 62 -47 62 -6 0 40 29 88 57 95
32 8 43 -3 43 -41 0 -47 13 -50 44 -10 29 37 27 48 -11 78 -30 24 -29 53 3 73
24 16 27 16 52 -3 15 -10 35 -22 45 -26 19 -7 23 -50 7 -91 -5 -14 -6 -28 -1
-30 13 -8 50 37 57 70 5 28 -1 36 -85 112 -51 45 -95 82 -99 82 -5 0 -6 -15
-4 -34z"/>
<path d="M3577 1189 c-39 -21 -77 -82 -76 -124 0 -40 38 -130 61 -145 13 -8
28 -22 35 -30 18 -23 138 -18 172 8 57 42 79 162 30 162 -19 0 -20 -4 -15 -35
8 -41 -11 -84 -48 -109 -35 -22 -60 -20 -105 8 -53 34 -83 80 -89 135 -3 41
-1 49 26 75 31 29 56 31 120 11 30 -10 30 14 -1 43 -29 27 -60 27 -110 1z"/>
<path d="M3343 1026 c-15 -12 -38 -28 -51 -35 -27 -14 -20 -31 13 -31 26 0 37
-14 105 -125 38 -64 41 -73 31 -101 -6 -17 -11 -33 -11 -37 0 -27 123 37 128
66 3 13 -4 17 -31 17 -42 0 -61 20 -88 91 -11 29 -29 65 -40 81 -16 21 -18 32
-9 47 27 51 0 67 -47 27z"/>
<path d="M3071 904 c-27 -19 -14 -34 32 -34 70 0 89 -50 38 -101 -26 -26 -32
-28 -60 -18 -40 14 -52 37 -44 83 5 34 4 36 -23 36 -37 0 -104 -19 -104 -29 0
-4 16 -15 35 -24 41 -19 67 -66 91 -161 l17 -67 -24 -25 c-34 -36 -15 -48 48
-29 28 8 56 22 63 30 13 16 6 35 -15 35 -19 0 -45 39 -45 67 0 52 93 71 117
23 34 -69 81 -98 111 -68 14 14 16 108 3 108 -5 0 -11 -10 -13 -22 -2 -14 -11
-24 -24 -26 -16 -2 -28 8 -48 42 -22 37 -25 52 -20 90 8 53 -9 80 -54 91 -15
3 -34 8 -42 10 -9 3 -26 -2 -39 -11z"/>
<path d="M1876 867 c-22 -24 -66 -74 -96 -112 -30 -37 -68 -74 -85 -81 -16 -7
-33 -16 -37 -20 -13 -13 13 -33 51 -40 20 -4 44 -11 53 -15 22 -12 31 3 20 33
-12 31 -6 46 28 63 42 21 67 19 97 -11 20 -20 24 -32 19 -56 -3 -17 -13 -36
-23 -43 -21 -16 -10 -32 34 -50 37 -16 87 -20 81 -7 -29 56 -36 91 -43 212 -4
74 -11 143 -16 153 -15 27 -39 20 -83 -26z m48 -53 c10 -27 7 -51 -12 -74 -17
-21 -19 -21 -35 -5 -23 22 -21 44 5 72 25 27 34 29 42 7z"/>
<path d="M2702 825 c-119 -19 -121 -20 -88 -54 23 -24 30 -43 38 -113 5 -45
14 -91 20 -101 7 -15 4 -24 -13 -43 -37 -39 -17 -47 99 -35 109 12 140 23 148
58 13 51 -18 85 -35 39 -12 -30 -35 -43 -88 -52 -47 -7 -73 12 -73 56 0 61 29
79 65 40 26 -29 35 -16 35 49 0 76 -15 91 -50 49 -23 -27 -29 -29 -48 -19 -13
7 -22 21 -22 35 0 35 30 56 82 56 39 0 50 -4 66 -27 15 -20 24 -25 32 -17 16
16 -14 80 -42 88 -27 7 -20 7 -126 -9z"/>
<path d="M2150 824 c0 -4 12 -20 26 -35 l27 -28 -12 -108 c-9 -89 -14 -110
-31 -122 -42 -29 -19 -51 53 -51 64 0 73 11 36 44 -29 26 -31 31 -24 74 14 92
45 108 57 31 10 -65 34 -124 51 -127 20 -4 42 28 73 111 19 50 30 67 43 65 13
-3 15 -14 13 -63 -5 -84 -9 -93 -50 -114 -41 -21 -39 -22 48 -39 30 -5 59 -6
64 -2 5 5 -1 22 -13 39 -20 27 -21 35 -11 93 5 35 10 82 10 105 0 31 6 48 23
63 22 21 22 22 3 36 -24 17 -67 18 -89 2 -16 -13 -67 -148 -67 -180 0 -20 -36
-43 -45 -29 -5 10 -21 82 -35 159 -4 24 -13 49 -21 57 -15 14 -129 31 -129 19z"/>
</g>
</svg>
