<svg width="215" height="359" viewBox="0 0 215 359" fill="none" xmlns="http://www.w3.org/2000/svg">
<g filter="url(#filter0_d_116_1698)">
<rect x="8" y="53.9998" width="397" height="289" fill="#EADCCE"/>
<path d="M144.5 308.5H388" stroke="#0C0C0C"/>
<path d="M51.875 132H41.6602L41.2695 128.68C41.6211 128.224 42.3568 127.781 43.4766 127.351V109.07C42.3698 108.68 41.6341 108.23 41.2695 107.722L41.6602 104.402H50.5859C53.4505 104.402 55.931 104.943 58.0273 106.023C60.1237 107.091 61.7383 108.68 62.8711 110.789C64.0169 112.885 64.5898 115.483 64.5898 118.582C64.5898 121.681 64.0755 124.22 63.0469 126.199C62.0182 128.178 60.5534 129.643 58.6523 130.594C56.7513 131.531 54.4922 132 51.875 132ZM51.0352 108.758H49.2383V127.644H52.1094C53.4505 127.644 54.6029 127.39 55.5664 126.883C56.5299 126.362 57.2721 125.457 57.793 124.168C58.3268 122.879 58.5938 121.075 58.5938 118.758C58.5938 112.091 56.0742 108.758 51.0352 108.758ZM85.9375 121.512C85.9375 124.116 85.4948 126.212 84.6094 127.801C83.724 129.376 82.5195 130.522 80.9961 131.238C79.4857 131.941 77.7799 132.293 75.8789 132.293C72.9102 132.293 70.625 131.505 69.0234 129.93C67.4349 128.341 66.6406 125.678 66.6406 121.941C66.6406 118.582 67.5195 116.036 69.2773 114.305C71.0482 112.56 73.4635 111.687 76.5234 111.687C79.6484 111.687 81.9987 112.456 83.5742 113.992C85.1497 115.528 85.9375 118.035 85.9375 121.512ZM72.4609 121.844C72.4609 126.101 73.7435 128.23 76.3086 128.23C77.6107 128.23 78.5742 127.749 79.1992 126.785C79.8242 125.808 80.1367 124.213 80.1367 122C80.1367 117.846 78.8281 115.769 76.2109 115.769C74.9349 115.769 73.9909 116.232 73.3789 117.156C72.7669 118.068 72.4609 119.63 72.4609 121.844ZM87.9492 115.086L88.3398 112C89.7721 111.674 91.0938 111.512 92.3047 111.512C92.8906 111.512 93.4245 111.525 93.9062 111.551C94.401 111.564 94.8438 111.583 95.2344 111.609V113.601C95.8984 113.041 96.7839 112.586 97.8906 112.234C98.9974 111.87 100.059 111.687 101.074 111.687C102.819 111.687 104.206 111.954 105.234 112.488C106.263 113.009 107.005 113.868 107.461 115.066C107.917 116.264 108.145 117.866 108.145 119.871V127.566C109.186 127.957 109.922 128.406 110.352 128.914L109.941 132H100.742L100.352 128.914C100.716 128.406 101.452 127.957 102.559 127.566V119.637C102.559 118.191 102.324 117.228 101.855 116.746C101.491 116.355 100.964 116.121 100.273 116.043C99.5833 115.952 98.8346 116.01 98.0273 116.219C97.2201 116.427 96.4583 116.778 95.7422 117.273V127.566C96.7839 127.957 97.5195 128.406 97.9492 128.914L97.5586 132H88.3398L87.9492 128.914C88.3138 128.406 89.0495 127.957 90.1562 127.566V116.433C89.2057 116.121 88.4701 115.672 87.9492 115.086ZM117.223 103.88C116.983 104.813 116.676 105.826 116.303 106.92C115.93 108.013 115.516 109.106 115.063 110.2C114.636 111.266 114.21 112.28 113.783 113.24H111.183C111.37 112.493 111.556 111.693 111.743 110.84C111.956 109.986 112.143 109.133 112.303 108.28C112.49 107.4 112.65 106.546 112.783 105.72C112.943 104.893 113.076 104.133 113.183 103.44H116.943L117.223 103.88ZM123.086 106.961H125.996V112H131.719V115.359H125.996V125.476C125.996 126.349 126.12 126.967 126.367 127.332C126.549 127.618 126.888 127.801 127.383 127.879C127.891 127.944 128.47 127.924 129.121 127.82C129.772 127.716 130.397 127.547 130.996 127.312L132.207 130.437C130.15 131.479 128.047 132 125.898 132C123.75 132 122.298 131.544 121.543 130.633C120.788 129.708 120.41 128.367 120.41 126.609V115.359H118.613L118.164 112.918C118.594 112.41 119.473 111.902 120.801 111.394C121.139 109.194 121.901 107.716 123.086 106.961Z" fill="#E25252"/>
<path d="M146.211 112.351V111.238C146.211 108.478 146.81 106.388 148.008 104.969C148.633 104.252 149.453 103.725 150.469 103.387C151.497 103.035 152.611 102.872 153.809 102.898C155.007 102.911 156.191 103.094 157.363 103.445C158.548 103.797 159.603 104.318 160.527 105.008C160.54 105.099 160.547 105.209 160.547 105.34C160.56 105.47 160.566 105.626 160.566 105.808C160.566 106.043 160.521 106.401 160.43 106.883C160.352 107.351 160.234 107.84 160.078 108.347C159.922 108.842 159.74 109.259 159.531 109.597H156.172C155.677 108.673 155.423 107.82 155.41 107.039C155.111 106.987 154.844 106.961 154.609 106.961C153.594 106.961 152.871 107.241 152.441 107.801C152.012 108.36 151.797 109.376 151.797 110.847V112.351H157.93V116.043H151.797V127.351C153.815 127.768 155.176 128.289 155.879 128.914L155.488 132H144.395L144.004 128.914C144.368 128.406 145.104 127.957 146.211 127.566V116.043H144.453L144.004 113.289C144.59 112.768 145.326 112.456 146.211 112.351ZM178.477 121.512C178.477 124.116 178.034 126.212 177.148 127.801C176.263 129.376 175.059 130.522 173.535 131.238C172.025 131.941 170.319 132.293 168.418 132.293C165.449 132.293 163.164 131.505 161.562 129.93C159.974 128.341 159.18 125.678 159.18 121.941C159.18 118.582 160.059 116.036 161.816 114.305C163.587 112.56 166.003 111.687 169.062 111.687C172.188 111.687 174.538 112.456 176.113 113.992C177.689 115.528 178.477 118.035 178.477 121.512ZM165 121.844C165 126.101 166.283 128.23 168.848 128.23C170.15 128.23 171.113 127.749 171.738 126.785C172.363 125.808 172.676 124.213 172.676 122C172.676 117.846 171.367 115.769 168.75 115.769C167.474 115.769 166.53 116.232 165.918 117.156C165.306 118.068 165 119.63 165 121.844ZM192.48 116.922C190.475 116.922 189.076 117.306 188.281 118.074V127.234C190.469 127.651 191.953 128.211 192.734 128.914L192.324 132H180.879L180.488 128.914C180.853 128.406 181.589 127.957 182.695 127.566V116.433C181.745 116.121 181.009 115.672 180.488 115.086L180.879 112C182.311 111.674 183.633 111.512 184.844 111.512C185.43 111.512 185.964 111.525 186.445 111.551C186.94 111.564 187.383 111.583 187.773 111.609V114.129C188.385 113.4 189.173 112.801 190.137 112.332C190.944 111.954 191.751 111.733 192.559 111.668C193.366 111.603 193.971 111.661 194.375 111.844L194.258 117.039C193.737 116.961 193.145 116.922 192.48 116.922ZM205.195 136.238C207.565 136.238 208.75 134.812 208.75 131.961V130.203C207.448 130.997 205.807 131.394 203.828 131.394C201.328 131.394 199.401 130.665 198.047 129.207C196.706 127.735 196.035 125.294 196.035 121.883C196.035 115.086 199.154 111.687 205.391 111.687C206.979 111.687 208.477 112.032 209.883 112.722C210.13 112.241 210.527 112 211.074 112H214.355V131.687C214.355 134.617 213.626 136.785 212.168 138.191C210.723 139.61 208.477 140.32 205.43 140.32C204.362 140.32 203.255 140.235 202.109 140.066C200.977 139.897 199.922 139.663 198.945 139.363C197.969 139.064 197.188 138.732 196.602 138.367C196.589 138.237 196.576 138.113 196.562 137.996C196.562 137.879 196.562 137.762 196.562 137.644C196.562 136.173 196.908 134.76 197.598 133.406H201.113C201.413 133.966 201.628 134.708 201.758 135.633C202.76 136.036 203.906 136.238 205.195 136.238ZM201.562 121.648C201.562 123.627 201.836 125.021 202.383 125.828C202.76 126.375 203.32 126.733 204.062 126.902C204.805 127.071 205.599 127.071 206.445 126.902C207.305 126.72 208.073 126.394 208.75 125.926V116.433C207.695 115.991 206.536 115.769 205.273 115.769C202.799 115.769 201.562 117.729 201.562 121.648ZM227.012 132.312C223.809 132.312 221.4 131.459 219.785 129.754C218.171 128.048 217.363 125.568 217.363 122.312C217.363 120.346 217.643 118.653 218.203 117.234C218.763 115.802 219.525 114.695 220.488 113.914C222.35 112.43 224.525 111.687 227.012 111.687C228.665 111.687 230.059 111.961 231.191 112.508C232.337 113.041 233.203 113.946 233.789 115.222C234.388 116.485 234.688 118.211 234.688 120.398C234.688 122.325 233.737 123.289 231.836 123.289H223.164C223.268 124.969 223.698 126.153 224.453 126.844C225.221 127.534 226.432 127.879 228.086 127.879C228.984 127.879 229.844 127.775 230.664 127.566C231.497 127.345 232.103 127.13 232.48 126.922L233.047 126.609L234.238 129.793C234.095 129.962 233.867 130.196 233.555 130.496C233.346 130.691 232.923 130.932 232.285 131.219C231.647 131.505 230.866 131.759 229.941 131.98C229.03 132.202 228.053 132.312 227.012 132.312ZM223.203 119.969L229.531 119.715C229.583 119.389 229.609 118.94 229.609 118.367C229.609 117.833 229.395 117.267 228.965 116.668C228.535 116.069 227.793 115.769 226.738 115.769C225.684 115.769 224.876 116.088 224.316 116.726C223.757 117.364 223.385 118.445 223.203 119.969ZM241.094 106.961H244.004V112H249.727V115.359H244.004V125.476C244.004 126.349 244.128 126.967 244.375 127.332C244.557 127.618 244.896 127.801 245.391 127.879C245.898 127.944 246.478 127.924 247.129 127.82C247.78 127.716 248.405 127.547 249.004 127.312L250.215 130.437C248.158 131.479 246.055 132 243.906 132C241.758 132 240.306 131.544 239.551 130.633C238.796 129.708 238.418 128.367 238.418 126.609V115.359H236.621L236.172 112.918C236.602 112.41 237.48 111.902 238.809 111.394C239.147 109.194 239.909 107.716 241.094 106.961ZM41.8359 180.969C41.8359 180.76 41.8359 180.552 41.8359 180.344C41.849 180.122 41.862 179.901 41.875 179.68C44.362 178.351 47.0312 177.687 49.8828 177.687C52.7344 177.687 54.7786 178.228 56.0156 179.308C57.2526 180.389 57.8711 182.18 57.8711 184.68V193.195C58.7956 193.39 59.5312 193.618 60.0781 193.879V197.355C58.75 197.993 56.8034 198.312 54.2383 198.312C53.9648 197.596 53.737 196.756 53.5547 195.793C52.4089 197.472 50.332 198.312 47.3242 198.312C46.1393 198.312 45.0521 198.078 44.0625 197.609C43.0859 197.14 42.3047 196.476 41.7188 195.617C41.1328 194.745 40.8398 193.709 40.8398 192.512C40.8398 190.728 41.4323 189.328 42.6172 188.312C43.8021 187.284 45.5664 186.769 47.9102 186.769H52.2852V184.836C52.2852 182.752 51.1784 181.711 48.9648 181.711C48.1055 181.711 47.4219 181.795 46.9141 181.965C46.849 183.097 46.6927 183.963 46.4453 184.562H42.5195C42.0638 183.612 41.8359 182.414 41.8359 180.969ZM49.043 194.23C50.4102 194.23 51.4909 193.833 52.2852 193.039V189.758H49.4727C47.5586 189.758 46.6016 190.493 46.6016 191.965C46.6016 192.629 46.8034 193.176 47.207 193.605C47.6237 194.022 48.2357 194.23 49.043 194.23ZM61.5039 181.086L61.8945 178C63.3268 177.674 64.6484 177.512 65.8594 177.512C66.4453 177.512 66.9792 177.525 67.4609 177.551C67.9557 177.564 68.3984 177.583 68.7891 177.609V179.601C69.4531 179.041 70.3385 178.586 71.4453 178.234C72.5521 177.87 73.6133 177.687 74.6289 177.687C76.3737 177.687 77.7604 177.954 78.7891 178.488C79.8177 179.009 80.5599 179.868 81.0156 181.066C81.4714 182.264 81.6992 183.866 81.6992 185.871V193.566C82.7409 193.957 83.4766 194.406 83.9062 194.914L83.4961 198H74.2969L73.9062 194.914C74.2708 194.406 75.0065 193.957 76.1133 193.566V185.637C76.1133 184.191 75.8789 183.228 75.4102 182.746C75.0456 182.355 74.5182 182.121 73.8281 182.043C73.138 181.952 72.3893 182.01 71.582 182.219C70.7747 182.427 70.013 182.778 69.2969 183.273V193.566C70.3385 193.957 71.0742 194.406 71.5039 194.914L71.1133 198H61.8945L61.5039 194.914C61.8685 194.406 62.6042 193.957 63.7109 193.566V182.433C62.7604 182.121 62.0247 181.672 61.5039 181.086ZM89.3164 202.648H89.8828C90.3646 202.648 90.8789 202.199 91.4258 201.301C91.9727 200.402 92.3503 199.341 92.5586 198.117L85.9961 182.609C84.694 182.18 83.8151 181.672 83.3594 181.086L83.75 178H92.9688L93.3594 181.086C92.9948 181.502 92.4089 181.887 91.6016 182.238L93.8086 188.273C94.2773 189.549 94.6094 190.793 94.8047 192.004L94.9219 192.551H95.4883C95.7096 191.209 96.0807 189.81 96.6016 188.351L98.7109 182.433C97.7474 182.069 97.0573 181.62 96.6406 181.086L97.0312 178H105.84L106.23 181.086C105.749 181.698 104.87 182.219 103.594 182.648L96.9922 198.234C95.7422 201.216 94.7852 203.124 94.1211 203.957C92.9492 205.532 91.3151 206.32 89.2188 206.32C87.1224 206.32 85.5273 205.773 84.4336 204.68C84.4206 204.549 84.4076 204.413 84.3945 204.269C84.3945 204.139 84.3945 204.009 84.3945 203.879C84.3945 202.433 84.7005 201.047 85.3125 199.719H88.6328C89.0234 200.422 89.2513 201.398 89.3164 202.648ZM117.598 181.086L117.988 178C119.421 177.674 120.742 177.512 121.953 177.512C122.539 177.512 123.073 177.525 123.555 177.551C124.049 177.564 124.492 177.583 124.883 177.609V179.601C125.521 179.068 126.315 178.618 127.266 178.254C128.229 177.876 129.102 177.687 129.883 177.687C132.917 177.687 134.941 178.443 135.957 179.953C136.621 179.315 137.5 178.781 138.594 178.351C139.688 177.909 140.703 177.687 141.641 177.687C143.594 177.687 145.111 177.967 146.191 178.527C147.272 179.087 148.021 180.051 148.438 181.418C148.867 182.772 149.082 184.66 149.082 187.082V193.566C150.137 193.97 150.866 194.419 151.27 194.914L150.879 198H141.68L141.27 194.914C141.634 194.406 142.37 193.957 143.477 193.566V185.637C143.477 184.178 143.281 183.208 142.891 182.726C142.578 182.336 142.083 182.101 141.406 182.023C140.729 181.945 140 182.017 139.219 182.238C138.438 182.446 137.734 182.805 137.109 183.312C137.253 184.276 137.324 185.532 137.324 187.082V193.566C138.379 193.97 139.108 194.419 139.512 194.914L139.121 198H129.922L129.512 194.914C129.876 194.406 130.612 193.957 131.719 193.566V185.637C131.719 184.178 131.523 183.208 131.133 182.726C130.82 182.349 130.326 182.121 129.648 182.043C128.984 181.952 128.262 182.01 127.48 182.219C126.712 182.427 126.016 182.778 125.391 183.273V193.566C126.432 193.957 127.168 194.406 127.598 194.914L127.207 198H117.988L117.598 194.914C117.962 194.406 118.698 193.957 119.805 193.566V182.433C118.854 182.121 118.118 181.672 117.598 181.086ZM171.836 187.512C171.836 190.116 171.393 192.212 170.508 193.801C169.622 195.376 168.418 196.522 166.895 197.238C165.384 197.941 163.678 198.293 161.777 198.293C158.809 198.293 156.523 197.505 154.922 195.93C153.333 194.341 152.539 191.678 152.539 187.941C152.539 184.582 153.418 182.036 155.176 180.305C156.947 178.56 159.362 177.687 162.422 177.687C165.547 177.687 167.897 178.456 169.473 179.992C171.048 181.528 171.836 184.035 171.836 187.512ZM158.359 187.844C158.359 192.101 159.642 194.23 162.207 194.23C163.509 194.23 164.473 193.749 165.098 192.785C165.723 191.808 166.035 190.213 166.035 188C166.035 183.846 164.727 181.769 162.109 181.769C160.833 181.769 159.889 182.232 159.277 183.156C158.665 184.068 158.359 185.63 158.359 187.844ZM173.848 181.086L174.238 178C175.671 177.674 176.992 177.512 178.203 177.512C178.789 177.512 179.323 177.525 179.805 177.551C180.299 177.564 180.742 177.583 181.133 177.609V179.601C181.771 179.068 182.565 178.618 183.516 178.254C184.479 177.876 185.352 177.687 186.133 177.687C189.167 177.687 191.191 178.443 192.207 179.953C192.871 179.315 193.75 178.781 194.844 178.351C195.938 177.909 196.953 177.687 197.891 177.687C199.844 177.687 201.361 177.967 202.441 178.527C203.522 179.087 204.271 180.051 204.688 181.418C205.117 182.772 205.332 184.66 205.332 187.082V193.566C206.387 193.97 207.116 194.419 207.52 194.914L207.129 198H197.93L197.52 194.914C197.884 194.406 198.62 193.957 199.727 193.566V185.637C199.727 184.178 199.531 183.208 199.141 182.726C198.828 182.336 198.333 182.101 197.656 182.023C196.979 181.945 196.25 182.017 195.469 182.238C194.688 182.446 193.984 182.805 193.359 183.312C193.503 184.276 193.574 185.532 193.574 187.082V193.566C194.629 193.97 195.358 194.419 195.762 194.914L195.371 198H186.172L185.762 194.914C186.126 194.406 186.862 193.957 187.969 193.566V185.637C187.969 184.178 187.773 183.208 187.383 182.726C187.07 182.349 186.576 182.121 185.898 182.043C185.234 181.952 184.512 182.01 183.73 182.219C182.962 182.427 182.266 182.778 181.641 183.273V193.566C182.682 193.957 183.418 194.406 183.848 194.914L183.457 198H174.238L173.848 194.914C174.212 194.406 174.948 193.957 176.055 193.566V182.433C175.104 182.121 174.368 181.672 173.848 181.086ZM218.496 198.312C215.293 198.312 212.884 197.459 211.27 195.754C209.655 194.048 208.848 191.568 208.848 188.312C208.848 186.346 209.128 184.653 209.688 183.234C210.247 181.802 211.009 180.695 211.973 179.914C213.835 178.43 216.009 177.687 218.496 177.687C220.15 177.687 221.543 177.961 222.676 178.508C223.822 179.041 224.688 179.946 225.273 181.222C225.872 182.485 226.172 184.211 226.172 186.398C226.172 188.325 225.221 189.289 223.32 189.289H214.648C214.753 190.969 215.182 192.153 215.938 192.844C216.706 193.534 217.917 193.879 219.57 193.879C220.469 193.879 221.328 193.775 222.148 193.566C222.982 193.345 223.587 193.13 223.965 192.922L224.531 192.609L225.723 195.793C225.579 195.962 225.352 196.196 225.039 196.496C224.831 196.691 224.408 196.932 223.77 197.219C223.132 197.505 222.35 197.759 221.426 197.98C220.514 198.202 219.538 198.312 218.496 198.312ZM214.688 185.969L221.016 185.715C221.068 185.389 221.094 184.94 221.094 184.367C221.094 183.833 220.879 183.267 220.449 182.668C220.02 182.069 219.277 181.769 218.223 181.769C217.168 181.769 216.361 182.088 215.801 182.726C215.241 183.364 214.87 184.445 214.688 185.969ZM228.223 181.086L228.613 178C230.046 177.674 231.367 177.512 232.578 177.512C233.164 177.512 233.698 177.525 234.18 177.551C234.674 177.564 235.117 177.583 235.508 177.609V179.601C236.172 179.041 237.057 178.586 238.164 178.234C239.271 177.87 240.332 177.687 241.348 177.687C243.092 177.687 244.479 177.954 245.508 178.488C246.536 179.009 247.279 179.868 247.734 181.066C248.19 182.264 248.418 183.866 248.418 185.871V193.566C249.46 193.957 250.195 194.406 250.625 194.914L250.215 198H241.016L240.625 194.914C240.99 194.406 241.725 193.957 242.832 193.566V185.637C242.832 184.191 242.598 183.228 242.129 182.746C241.764 182.355 241.237 182.121 240.547 182.043C239.857 181.952 239.108 182.01 238.301 182.219C237.493 182.427 236.732 182.778 236.016 183.273V193.566C237.057 193.957 237.793 194.406 238.223 194.914L237.832 198H228.613L228.223 194.914C228.587 194.406 229.323 193.957 230.43 193.566V182.433C229.479 182.121 228.743 181.672 228.223 181.086ZM256.367 172.961H259.277V178H265V181.359H259.277V191.476C259.277 192.349 259.401 192.967 259.648 193.332C259.831 193.618 260.169 193.801 260.664 193.879C261.172 193.944 261.751 193.924 262.402 193.82C263.053 193.716 263.678 193.547 264.277 193.312L265.488 196.437C263.431 197.479 261.328 198 259.18 198C257.031 198 255.579 197.544 254.824 196.633C254.069 195.708 253.691 194.367 253.691 192.609V181.359H251.895L251.445 178.918C251.875 178.41 252.754 177.902 254.082 177.394C254.421 175.194 255.182 173.716 256.367 172.961Z" fill="black"/>
<path d="M162.691 283.277C162.215 283.066 161.496 282.961 160.535 282.961C159.574 282.961 158.797 283.375 158.203 284.203C157.609 285.031 157.312 286.488 157.312 288.574C157.312 290.652 157.598 292.129 158.168 293.004C158.738 293.879 159.582 294.316 160.699 294.316C162.41 294.316 163.945 294.058 165.305 293.543L166.172 295.676C164.477 296.683 162.484 297.187 160.195 297.187C157.906 297.187 156.254 296.539 155.238 295.242C154.223 293.961 153.715 291.844 153.715 288.89C153.715 285.945 154.344 283.769 155.602 282.363C156.859 280.949 158.621 280.242 160.887 280.242C162.715 280.242 164.453 280.75 166.102 281.765V282.305C166.102 282.484 166.074 282.762 166.02 283.137C165.973 283.504 165.898 283.89 165.797 284.297C165.703 284.695 165.586 285.035 165.445 285.316H163.172C162.945 284.871 162.785 284.191 162.691 283.277ZM167.016 281.812L167.25 279.961C168.156 279.75 168.992 279.644 169.758 279.644C170.523 279.644 171.168 279.668 171.691 279.715V285.715C172.082 285.465 172.594 285.254 173.227 285.082C173.867 284.902 174.438 284.812 174.938 284.812C176.523 284.812 177.617 285.195 178.219 285.961C178.828 286.726 179.133 287.894 179.133 289.465V294.34C179.758 294.574 180.199 294.844 180.457 295.148L180.211 297H174.691L174.457 295.148C174.676 294.844 175.117 294.574 175.781 294.34V289.582C175.781 288.715 175.641 288.137 175.359 287.847C175.141 287.613 174.816 287.472 174.387 287.426C173.965 287.371 173.512 287.406 173.027 287.531C172.543 287.656 172.098 287.867 171.691 288.164V294.34C172.316 294.574 172.758 294.844 173.016 295.148L172.781 297H167.25L167.016 295.148C167.234 294.844 167.676 294.574 168.34 294.34V282.621C167.77 282.433 167.328 282.164 167.016 281.812ZM187.066 297.187C185.145 297.187 183.699 296.676 182.73 295.652C181.762 294.629 181.277 293.14 181.277 291.187C181.277 290.008 181.445 288.992 181.781 288.14C182.117 287.281 182.574 286.617 183.152 286.148C184.27 285.258 185.574 284.812 187.066 284.812C188.059 284.812 188.895 284.976 189.574 285.305C190.262 285.625 190.781 286.168 191.133 286.933C191.492 287.691 191.672 288.726 191.672 290.039C191.672 291.195 191.102 291.773 189.961 291.773H184.758C184.82 292.781 185.078 293.492 185.531 293.906C185.992 294.32 186.719 294.527 187.711 294.527C188.25 294.527 188.766 294.465 189.258 294.34C189.758 294.207 190.121 294.078 190.348 293.953L190.688 293.765L191.402 295.676C191.316 295.777 191.18 295.918 190.992 296.097C190.867 296.215 190.613 296.359 190.23 296.531C189.848 296.703 189.379 296.855 188.824 296.988C188.277 297.121 187.691 297.187 187.066 297.187ZM184.781 289.781L188.578 289.629C188.609 289.433 188.625 289.164 188.625 288.82C188.625 288.5 188.496 288.16 188.238 287.801C187.98 287.441 187.535 287.262 186.902 287.262C186.27 287.262 185.785 287.453 185.449 287.836C185.113 288.219 184.891 288.867 184.781 289.781ZM198.539 287.262C197.07 287.262 196.336 288.523 196.336 291.047C196.336 292.328 196.539 293.222 196.945 293.73C197.352 294.23 197.941 294.48 198.715 294.48C199.91 294.48 200.98 294.367 201.926 294.14L202.652 295.992C202.137 296.328 201.445 296.613 200.578 296.847C199.719 297.074 198.879 297.187 198.059 297.187C194.605 297.187 192.879 295.187 192.879 291.187C192.879 288.844 193.48 287.164 194.684 286.148C195.754 285.258 197.059 284.812 198.598 284.812C200.137 284.812 201.414 285.097 202.43 285.668C202.438 285.746 202.441 285.824 202.441 285.902C202.449 285.98 202.453 286.055 202.453 286.125C202.453 287.039 202.246 287.902 201.832 288.715H199.723C199.496 288.308 199.359 287.832 199.312 287.285C199.211 287.277 199.094 287.273 198.961 287.273C198.836 287.265 198.695 287.262 198.539 287.262ZM203.414 281.812L203.648 279.961C204.555 279.75 205.391 279.644 206.156 279.644C206.922 279.644 207.566 279.668 208.09 279.715V294.34C208.715 294.574 209.156 294.844 209.414 295.148L209.18 297H203.648L203.414 295.148C203.633 294.844 204.074 294.574 204.738 294.34V282.621C204.168 282.433 203.727 282.164 203.414 281.812ZM216.633 295.148L216.398 297H212.555L208.312 290.789L210.949 287.355C210.66 287.183 210.469 287.015 210.375 286.851L210.609 285H215.895L216.129 286.851C215.777 287.297 215.113 287.648 214.137 287.906L211.84 290.543L214.547 294.117C215.531 294.336 216.227 294.68 216.633 295.148ZM241.008 287.765L238.008 297.14H234.891L233.66 293.355C233.418 292.582 233.219 291.621 233.062 290.472L232.992 289.898H232.652C232.574 290.523 232.473 291.121 232.348 291.691C232.23 292.262 232.094 292.808 231.938 293.332L230.812 297.14H227.402L224.379 287.707C223.691 287.472 223.219 287.187 222.961 286.851L223.195 285H228.82L229.055 286.851C228.766 287.187 228.277 287.472 227.59 287.707L228.984 293.836H229.324C229.41 293.406 229.504 292.976 229.605 292.547C229.707 292.109 229.82 291.664 229.945 291.211L231.574 285.047H234.27L235.875 291.164L236.473 293.836H236.812C237.398 291.125 237.797 289.308 238.008 288.387L238.148 287.707C237.438 287.465 236.961 287.18 236.719 286.851L236.953 285H242.285L242.52 286.851C242.254 287.211 241.75 287.515 241.008 287.765ZM254.625 290.707C254.625 292.269 254.359 293.527 253.828 294.48C253.297 295.426 252.574 296.113 251.66 296.543C250.754 296.965 249.73 297.176 248.59 297.176C246.809 297.176 245.438 296.703 244.477 295.758C243.523 294.805 243.047 293.207 243.047 290.965C243.047 288.949 243.574 287.422 244.629 286.383C245.691 285.336 247.141 284.812 248.977 284.812C250.852 284.812 252.262 285.273 253.207 286.195C254.152 287.117 254.625 288.621 254.625 290.707ZM246.539 290.906C246.539 293.461 247.309 294.738 248.848 294.738C249.629 294.738 250.207 294.449 250.582 293.871C250.957 293.285 251.145 292.328 251.145 291C251.145 288.508 250.359 287.262 248.789 287.262C248.023 287.262 247.457 287.539 247.09 288.094C246.723 288.64 246.539 289.578 246.539 290.906ZM255.539 281.812L255.773 279.961C256.68 279.75 257.516 279.644 258.281 279.644C259.047 279.644 259.691 279.668 260.215 279.715V294.34C260.84 294.574 261.281 294.844 261.539 295.148L261.305 297H255.773L255.539 295.148C255.758 294.844 256.199 294.574 256.863 294.34V282.621C256.293 282.433 255.852 282.164 255.539 281.812ZM269.73 287.953C268.527 287.953 267.688 288.183 267.211 288.644V294.14C268.523 294.39 269.414 294.726 269.883 295.148L269.637 297H262.77L262.535 295.148C262.754 294.844 263.195 294.574 263.859 294.34V287.66C263.289 287.472 262.848 287.203 262.535 286.851L262.77 285C263.629 284.805 264.422 284.707 265.148 284.707C265.5 284.707 265.82 284.715 266.109 284.73C266.406 284.738 266.672 284.75 266.906 284.765V286.277C267.273 285.84 267.746 285.48 268.324 285.199C268.809 284.972 269.293 284.84 269.777 284.801C270.262 284.762 270.625 284.797 270.867 284.906L270.797 288.023C270.484 287.976 270.129 287.953 269.73 287.953ZM277.84 281.812L278.074 279.961C278.988 279.75 279.863 279.644 280.699 279.644C281.527 279.644 282.238 279.668 282.832 279.715V294.117C283.324 294.203 283.766 294.34 284.156 294.527V296.426C283.188 296.933 281.969 297.187 280.5 297.187C280.344 297.109 280.188 296.969 280.031 296.765C279.883 296.555 279.801 296.351 279.785 296.156C279.434 296.445 278.977 296.691 278.414 296.894C277.852 297.09 277.301 297.187 276.762 297.187C275.035 297.187 273.781 296.722 273 295.793C272.227 294.855 271.84 293.32 271.84 291.187C271.84 288.773 272.434 287.078 273.621 286.101C274.668 285.242 275.945 284.812 277.453 284.812C278.109 284.812 278.781 284.89 279.469 285.047V282.668C278.742 282.472 278.199 282.187 277.84 281.812ZM277.266 294.738C278.188 294.738 278.922 294.469 279.469 293.93V287.496C278.797 287.34 278.102 287.262 277.383 287.262C276.648 287.262 276.117 287.582 275.789 288.222C275.461 288.863 275.297 289.832 275.297 291.129C275.297 292.418 275.457 293.344 275.777 293.906C276.098 294.461 276.594 294.738 277.266 294.738ZM288.443 280.128C288.299 280.688 288.115 281.296 287.891 281.952C287.667 282.608 287.419 283.264 287.147 283.92C286.891 284.56 286.635 285.168 286.379 285.744H284.819C284.931 285.296 285.043 284.816 285.155 284.304C285.283 283.792 285.395 283.28 285.491 282.768C285.603 282.24 285.699 281.728 285.779 281.232C285.875 280.736 285.955 280.28 286.019 279.864H288.275L288.443 280.128ZM294.141 286.969C293.086 286.969 292.559 287.281 292.559 287.906C292.559 288.5 293.113 288.937 294.223 289.219L296.109 289.722C298.062 290.238 299.039 291.367 299.039 293.109C299.039 294.305 298.621 295.285 297.785 296.051C297.363 296.426 296.797 296.707 296.086 296.894C295.375 297.074 294.609 297.172 293.789 297.187C292.977 297.203 292.188 297.144 291.422 297.012C290.656 296.879 290.012 296.683 289.488 296.426C289.48 296.34 289.473 296.254 289.465 296.168C289.465 296.074 289.465 295.984 289.465 295.898C289.465 295.015 289.641 294.222 289.992 293.519H291.984C292.203 293.918 292.34 294.316 292.395 294.715C292.699 294.816 293.156 294.867 293.766 294.867C295.172 294.867 295.875 294.465 295.875 293.66C295.875 293.41 295.781 293.199 295.594 293.027C295.391 292.863 295.012 292.699 294.457 292.535L292.559 291.984C291.582 291.711 290.82 291.308 290.273 290.777C289.734 290.238 289.465 289.445 289.465 288.398C289.465 287.344 289.891 286.484 290.742 285.82C291.164 285.484 291.691 285.234 292.324 285.07C292.965 284.906 293.648 284.82 294.375 284.812C295.102 284.797 295.812 284.851 296.508 284.976C297.203 285.094 297.824 285.269 298.371 285.504C298.379 285.582 298.383 285.66 298.383 285.738C298.391 285.816 298.395 285.898 298.395 285.984C298.395 286.805 298.219 287.574 297.867 288.293H295.898C295.68 287.91 295.543 287.523 295.488 287.133C295.027 287.023 294.578 286.969 294.141 286.969ZM313.605 287.953C312.402 287.953 311.562 288.183 311.086 288.644V294.14C312.398 294.39 313.289 294.726 313.758 295.148L313.512 297H306.645L306.41 295.148C306.629 294.844 307.07 294.574 307.734 294.34V287.66C307.164 287.472 306.723 287.203 306.41 286.851L306.645 285C307.504 284.805 308.297 284.707 309.023 284.707C309.375 284.707 309.695 284.715 309.984 284.73C310.281 284.738 310.547 284.75 310.781 284.765V286.277C311.148 285.84 311.621 285.48 312.199 285.199C312.684 284.972 313.168 284.84 313.652 284.801C314.137 284.762 314.5 284.797 314.742 284.906L314.672 288.023C314.359 287.976 314.004 287.953 313.605 287.953ZM321.48 297.187C319.559 297.187 318.113 296.676 317.145 295.652C316.176 294.629 315.691 293.14 315.691 291.187C315.691 290.008 315.859 288.992 316.195 288.14C316.531 287.281 316.988 286.617 317.566 286.148C318.684 285.258 319.988 284.812 321.48 284.812C322.473 284.812 323.309 284.976 323.988 285.305C324.676 285.625 325.195 286.168 325.547 286.933C325.906 287.691 326.086 288.726 326.086 290.039C326.086 291.195 325.516 291.773 324.375 291.773H319.172C319.234 292.781 319.492 293.492 319.945 293.906C320.406 294.32 321.133 294.527 322.125 294.527C322.664 294.527 323.18 294.465 323.672 294.34C324.172 294.207 324.535 294.078 324.762 293.953L325.102 293.765L325.816 295.676C325.73 295.777 325.594 295.918 325.406 296.097C325.281 296.215 325.027 296.359 324.645 296.531C324.262 296.703 323.793 296.855 323.238 296.988C322.691 297.121 322.105 297.187 321.48 297.187ZM319.195 289.781L322.992 289.629C323.023 289.433 323.039 289.164 323.039 288.82C323.039 288.5 322.91 288.16 322.652 287.801C322.395 287.441 321.949 287.262 321.316 287.262C320.684 287.262 320.199 287.453 319.863 287.836C319.527 288.219 319.305 288.867 319.195 289.781ZM332.953 287.262C331.484 287.262 330.75 288.523 330.75 291.047C330.75 292.328 330.953 293.222 331.359 293.73C331.766 294.23 332.355 294.48 333.129 294.48C334.324 294.48 335.395 294.367 336.34 294.14L337.066 295.992C336.551 296.328 335.859 296.613 334.992 296.847C334.133 297.074 333.293 297.187 332.473 297.187C329.02 297.187 327.293 295.187 327.293 291.187C327.293 288.844 327.895 287.164 329.098 286.148C330.168 285.258 331.473 284.812 333.012 284.812C334.551 284.812 335.828 285.097 336.844 285.668C336.852 285.746 336.855 285.824 336.855 285.902C336.863 285.98 336.867 286.055 336.867 286.125C336.867 287.039 336.66 287.902 336.246 288.715H334.137C333.91 288.308 333.773 287.832 333.727 287.285C333.625 287.277 333.508 287.273 333.375 287.273C333.25 287.265 333.109 287.262 332.953 287.262ZM349.641 290.707C349.641 292.269 349.375 293.527 348.844 294.48C348.312 295.426 347.59 296.113 346.676 296.543C345.77 296.965 344.746 297.176 343.605 297.176C341.824 297.176 340.453 296.703 339.492 295.758C338.539 294.805 338.062 293.207 338.062 290.965C338.062 288.949 338.59 287.422 339.645 286.383C340.707 285.336 342.156 284.812 343.992 284.812C345.867 284.812 347.277 285.273 348.223 286.195C349.168 287.117 349.641 288.621 349.641 290.707ZM341.555 290.906C341.555 293.461 342.324 294.738 343.863 294.738C344.645 294.738 345.223 294.449 345.598 293.871C345.973 293.285 346.16 292.328 346.16 291C346.16 288.508 345.375 287.262 343.805 287.262C343.039 287.262 342.473 287.539 342.105 288.094C341.738 288.64 341.555 289.578 341.555 290.906ZM358.043 287.953C356.84 287.953 356 288.183 355.523 288.644V294.14C356.836 294.39 357.727 294.726 358.195 295.148L357.949 297H351.082L350.848 295.148C351.066 294.844 351.508 294.574 352.172 294.34V287.66C351.602 287.472 351.16 287.203 350.848 286.851L351.082 285C351.941 284.805 352.734 284.707 353.461 284.707C353.812 284.707 354.133 284.715 354.422 284.73C354.719 284.738 354.984 284.75 355.219 284.765V286.277C355.586 285.84 356.059 285.48 356.637 285.199C357.121 284.972 357.605 284.84 358.09 284.801C358.574 284.762 358.938 284.797 359.18 284.906L359.109 288.023C358.797 287.976 358.441 287.953 358.043 287.953ZM366.152 281.812L366.387 279.961C367.301 279.75 368.176 279.644 369.012 279.644C369.84 279.644 370.551 279.668 371.145 279.715V294.117C371.637 294.203 372.078 294.34 372.469 294.527V296.426C371.5 296.933 370.281 297.187 368.812 297.187C368.656 297.109 368.5 296.969 368.344 296.765C368.195 296.555 368.113 296.351 368.098 296.156C367.746 296.445 367.289 296.691 366.727 296.894C366.164 297.09 365.613 297.187 365.074 297.187C363.348 297.187 362.094 296.722 361.312 295.793C360.539 294.855 360.152 293.32 360.152 291.187C360.152 288.773 360.746 287.078 361.934 286.101C362.98 285.242 364.258 284.812 365.766 284.812C366.422 284.812 367.094 284.89 367.781 285.047V282.668C367.055 282.472 366.512 282.187 366.152 281.812ZM365.578 294.738C366.5 294.738 367.234 294.469 367.781 293.93V287.496C367.109 287.34 366.414 287.262 365.695 287.262C364.961 287.262 364.43 287.582 364.102 288.222C363.773 288.863 363.609 289.832 363.609 291.129C363.609 292.418 363.77 293.344 364.09 293.906C364.41 294.461 364.906 294.738 365.578 294.738ZM378.258 286.969C377.203 286.969 376.676 287.281 376.676 287.906C376.676 288.5 377.23 288.937 378.34 289.219L380.227 289.722C382.18 290.238 383.156 291.367 383.156 293.109C383.156 294.305 382.738 295.285 381.902 296.051C381.48 296.426 380.914 296.707 380.203 296.894C379.492 297.074 378.727 297.172 377.906 297.187C377.094 297.203 376.305 297.144 375.539 297.012C374.773 296.879 374.129 296.683 373.605 296.426C373.598 296.34 373.59 296.254 373.582 296.168C373.582 296.074 373.582 295.984 373.582 295.898C373.582 295.015 373.758 294.222 374.109 293.519H376.102C376.32 293.918 376.457 294.316 376.512 294.715C376.816 294.816 377.273 294.867 377.883 294.867C379.289 294.867 379.992 294.465 379.992 293.66C379.992 293.41 379.898 293.199 379.711 293.027C379.508 292.863 379.129 292.699 378.574 292.535L376.676 291.984C375.699 291.711 374.938 291.308 374.391 290.777C373.852 290.238 373.582 289.445 373.582 288.398C373.582 287.344 374.008 286.484 374.859 285.82C375.281 285.484 375.809 285.234 376.441 285.07C377.082 284.906 377.766 284.82 378.492 284.812C379.219 284.797 379.93 284.851 380.625 284.976C381.32 285.094 381.941 285.269 382.488 285.504C382.496 285.582 382.5 285.66 382.5 285.738C382.508 285.816 382.512 285.898 382.512 285.984C382.512 286.805 382.336 287.574 381.984 288.293H380.016C379.797 287.91 379.66 287.523 379.605 287.133C379.145 287.023 378.695 286.969 378.258 286.969Z" fill="black"/>
<rect opacity="0.3" x="204.034" y="85.846" width="21" height="75" transform="rotate(-162.556 204.034 85.846)" fill="#A52D2D"/>
</g>
<defs>
<filter id="filter0_d_116_1698" x="0.6" y="0.6" width="419.8" height="357.8" filterUnits="userSpaceOnUse" color-interpolation-filters="sRGB">
<feFlood flood-opacity="0" result="BackgroundImageFix"/>
<feColorMatrix in="SourceAlpha" type="matrix" values="0 0 0 0 0 0 0 0 0 0 0 0 0 0 0 0 0 0 127 0" result="hardAlpha"/>
<feOffset dx="4" dy="4"/>
<feGaussianBlur stdDeviation="5.7"/>
<feComposite in2="hardAlpha" operator="out"/>
<feColorMatrix type="matrix" values="0 0 0 0 0.415853 0 0 0 0 0.272593 0 0 0 0 0.129331 0 0 0 0.27 0"/>
<feBlend mode="normal" in2="BackgroundImageFix" result="effect1_dropShadow_116_1698"/>
<feBlend mode="normal" in="SourceGraphic" in2="effect1_dropShadow_116_1698" result="shape"/>
</filter>
</defs>
</svg>
