<svg width="42" height="56" viewBox="0 0 42 56" fill="none" xmlns="http://www.w3.org/2000/svg">
<ellipse cx="21" cy="50.9093" rx="21" ry="5.09091" fill="#E08F3D"/>
<path fill-rule="evenodd" clip-rule="evenodd" d="M29.4 7.28889V7.25657C29.4101 7.1596 29.4437 6.74909 28.187 6.12525C26.7221 5.39151 24.2458 4.84848 21 4.84848C17.7509 4.84848 15.2779 5.39475 13.8163 6.12202C12.5563 6.74909 12.5899 7.15636 12.6 7.25657V7.28889C12.5899 7.38586 12.5563 7.79636 13.8163 8.4202C15.2779 9.15394 17.7509 9.69697 21 9.69697C24.2491 9.69697 26.7221 9.15071 28.187 8.42343C29.4437 7.79636 29.4101 7.38909 29.4 7.28889ZM34.44 7.27273C34.44 9.65818 32.9851 11.4554 30.623 12.6675L33.395 20.1341C38.6131 21.6857 42 24.4008 42 28.2796C42 34.2723 33.9293 37.4853 23.52 37.9281V48.4848C23.52 49.1278 23.2545 49.7444 22.7819 50.199C22.3093 50.6537 21.6683 50.9091 21 50.9091C20.3317 50.9091 19.6907 50.6537 19.2181 50.199C18.7455 49.7444 18.48 49.1278 18.48 48.4848V37.9281C8.07072 37.4885 0 34.2723 0 28.2828C0 24.404 3.38688 21.6889 8.60496 20.1374L11.377 12.6675C9.01488 11.4554 7.56 9.65818 7.56 7.27273C7.56 2.42424 13.5744 0 21 0C28.4256 0 34.44 2.42424 34.44 7.27273Z" fill="#F07D13"/>
</svg>
