<svg width="66" height="76" viewBox="0 0 66 76" fill="none" xmlns="http://www.w3.org/2000/svg">
<g filter="url(#filter0_d_658_4760)">
<ellipse opacity="0.27" cx="30" cy="50.3629" rx="15" ry="3.63636" fill="#6B441D"/>
<path fill-rule="evenodd" clip-rule="evenodd" d="M36 19.2063V19.1833C36.0072 19.114 36.0312 18.8208 35.1336 18.3752C34.0872 17.8511 32.3184 17.4632 30 17.4632C27.6792 17.4632 25.9128 17.8534 24.8688 18.3729C23.9688 18.8208 23.9928 19.1117 24 19.1833V19.2063C23.9928 19.2756 23.9688 19.5688 24.8688 20.0144C25.9128 20.5385 27.6792 20.9264 30 20.9264C32.3208 20.9264 34.0872 20.5362 35.1336 20.0167C36.0312 19.5688 36.0072 19.2779 36 19.2063ZM39.6 19.1948C39.6 20.8987 38.5608 22.1824 36.8736 23.0482L38.8536 28.3815C42.5808 29.4898 45 31.4291 45 34.1997C45 38.4802 39.2352 40.7752 31.8 41.0915V48.632C31.8 49.0913 31.6104 49.5317 31.2728 49.8565C30.9352 50.1812 30.4774 50.3636 30 50.3636C29.5226 50.3636 29.0648 50.1812 28.7272 49.8565C28.3896 49.5317 28.2 49.0913 28.2 48.632V41.0915C20.7648 40.7775 15 38.4802 15 34.202C15 31.4315 17.4192 29.4921 21.1464 28.3838L23.1264 23.0482C21.4392 22.1824 20.4 20.8987 20.4 19.1948C20.4 15.7316 24.696 14 30 14C35.304 14 39.6 15.7316 39.6 19.1948Z" fill="#E21F1F"/>
</g>
<defs>
<filter id="filter0_d_658_4760" x="0" y="0" width="66" height="76" filterUnits="userSpaceOnUse" color-interpolation-filters="sRGB">
<feFlood flood-opacity="0" result="BackgroundImageFix"/>
<feColorMatrix in="SourceAlpha" type="matrix" values="0 0 0 0 0 0 0 0 0 0 0 0 0 0 0 0 0 0 127 0" result="hardAlpha"/>
<feOffset dx="3" dy="4"/>
<feGaussianBlur stdDeviation="9"/>
<feComposite in2="hardAlpha" operator="out"/>
<feColorMatrix type="matrix" values="0 0 0 0 0.419824 0 0 0 0 0.267706 0 0 0 0 0.115588 0 0 0 0.27 0"/>
<feBlend mode="multiply" in2="BackgroundImageFix" result="effect1_dropShadow_658_4760"/>
<feBlend mode="normal" in="SourceGraphic" in2="effect1_dropShadow_658_4760" result="shape"/>
</filter>
</defs>
</svg>
