<svg width="156" height="66" viewBox="0 0 156 66" fill="none" xmlns="http://www.w3.org/2000/svg">
<path d="M78 62C97.6643 62 115.64 59.1598 128.843 54.4446C135.427 52.0933 141.038 49.2001 145.08 45.7873C149.103 42.3902 152 38.0858 152 33C152 27.9142 149.103 23.6098 145.08 20.2127C141.038 16.7999 135.427 13.9067 128.843 11.5554C115.64 6.8402 97.6643 4 78 4C58.3357 4 40.3596 6.8402 27.1572 11.5554C20.5734 13.9067 14.9621 16.7999 10.9203 20.2127C6.89715 23.6098 4 27.9142 4 33C4 38.0858 6.89715 42.3902 10.9203 45.7873C14.9621 49.2001 20.5734 52.0933 27.1572 54.4446C40.3596 59.1598 58.3357 62 78 62Z" fill="#658F47" stroke="#F07D13" stroke-width="8"/>
<path d="M44.4521 39V26.2734H49.5146C52.3271 26.2734 53.7334 27.627 53.7334 29.543C53.7334 31.0371 52.7666 31.9688 51.4482 32.2676V32.3906C52.8896 32.4609 54.2432 33.6035 54.2432 35.4844C54.2432 37.5059 52.7314 39 49.8486 39H44.4521ZM49.3213 36.8203C50.8506 36.8203 51.501 36.1875 51.501 35.2383C51.501 34.166 50.6924 33.4102 49.3916 33.4102H47.0889V36.8203H49.3213ZM49.1279 31.5996C50.2354 31.5996 51.0615 30.9844 51.0615 29.9648C51.0615 29.0508 50.3936 28.418 49.1807 28.418H47.0889V31.5996H49.1279ZM60.1846 39.1934C57.2666 39.1934 55.4736 37.2949 55.4736 34.2715C55.4736 31.3184 57.2842 29.332 60.0791 29.332C62.5928 29.332 64.5615 30.9141 64.5615 34.166V34.9043H58.04C58.04 36.3457 58.9014 37.2422 60.2373 37.2422C61.1162 37.2422 61.749 36.8555 62.0127 36.2754H64.4912C64.1221 38.0332 62.54 39.1934 60.1846 39.1934ZM58.04 33.2695H62.1006C62.1006 32.1094 61.292 31.2832 60.1318 31.2832C58.9365 31.2832 58.084 32.1709 58.04 33.2695ZM71.6455 32.2852C71.54 31.6172 70.9424 31.1777 70.0811 31.1777C69.2373 31.1777 68.5869 31.582 68.6045 32.1621C68.5869 32.584 68.9385 32.918 69.835 33.1113L71.54 33.4629C73.3857 33.8496 74.2822 34.6758 74.2998 36.0469C74.2822 37.9277 72.5947 39.1934 70.0635 39.1934C67.4795 39.1934 65.9678 38.0332 65.7568 36.1699H68.376C68.499 36.9258 69.1143 37.3125 70.0635 37.3125C71.0127 37.3125 71.6455 36.9258 71.6455 36.3105C71.6455 35.8184 71.2412 35.5195 70.3447 35.3262L68.7627 35.0098C66.9521 34.6582 66.0029 33.709 66.0205 32.3027C66.0029 30.4746 67.585 29.332 70.0459 29.332C72.4541 29.332 73.9482 30.4746 74.0889 32.2852H71.6455ZM80.9268 29.4551V31.4062H79.1338V36.0645C79.1338 36.8203 79.5029 37.0137 80.0303 37.0312C80.2939 37.0312 80.751 37.0137 81.0674 36.9785V39.0352C80.7861 39.0879 80.3291 39.123 79.6787 39.123C77.7979 39.123 76.5146 38.2793 76.5322 36.4336V31.4062H75.2139V29.4551H76.5322V27.1699H79.1338V29.4551H80.9268ZM86.7627 39V26.2734H95.1475V28.4531H89.3994V31.5469H94.6025V33.7266H89.3994V39H86.7627ZM96.835 39V29.4551H99.4365V39H96.835ZM98.1357 28.207C97.3447 28.207 96.7119 27.6094 96.7119 26.8887C96.7119 26.1504 97.3447 25.5527 98.1357 25.5527C98.9092 25.5527 99.542 26.1504 99.542 26.8887C99.542 27.6094 98.9092 28.207 98.1357 28.207ZM106.485 29.4551V31.4062H104.692V36.0645C104.692 36.8203 105.062 37.0137 105.589 37.0312C105.853 37.0312 106.31 37.0137 106.626 36.9785V39.0352C106.345 39.0879 105.888 39.123 105.237 39.123C103.356 39.123 102.073 38.2793 102.091 36.4336V31.4062H100.772V29.4551H102.091V27.1699H104.692V29.4551H106.485ZM111.214 26.2734L110.985 35.1855H108.735L108.507 26.2734H111.214ZM109.878 39.1582C109.052 39.1582 108.384 38.4902 108.401 37.6816C108.384 36.873 109.052 36.2227 109.878 36.2227C110.651 36.2227 111.337 36.873 111.337 37.6816C111.337 38.4902 110.651 39.1582 109.878 39.1582Z" fill="white"/>
</svg>
