<svg width="16" height="16" viewBox="0 0 16 16" fill="none" xmlns="http://www.w3.org/2000/svg">
<path d="M14 10C14 10.3536 13.8595 10.6928 13.6095 10.9428C13.3594 11.1929 13.0203 11.3333 12.6667 11.3333H4.66667L2 14V3.33333C2 2.97971 2.14048 2.64057 2.39052 2.39052C2.64057 2.14048 2.97971 2 3.33333 2H12.6667C13.0203 2 13.3594 2.14048 13.6095 2.39052C13.8595 2.64057 14 2.97971 14 3.33333V10Z" stroke="#AAAAAA" stroke-width="1.4" stroke-linecap="round" stroke-linejoin="round"/>
<path fill-rule="evenodd" clip-rule="evenodd" d="M5.26675 4.66666C4.93538 4.66666 4.66675 4.93529 4.66675 5.26666C4.66675 5.59803 4.93538 5.86666 5.26675 5.86666H11.4001C11.7315 5.86666 12.0001 5.59803 12.0001 5.26666C12.0001 4.93529 11.7315 4.66666 11.4001 4.66666H5.26675ZM5.26675 7.06667C4.93538 7.06667 4.66675 7.3353 4.66675 7.66667C4.66675 7.99805 4.93538 8.26667 5.26675 8.26667H8.06675C8.39812 8.26667 8.66675 7.99805 8.66675 7.66667C8.66675 7.3353 8.39812 7.06667 8.06675 7.06667H5.26675Z" fill="#AAAAAA"/>
</svg>
