<svg width="24" height="25" viewBox="0 0 24 25" fill="none" xmlns="http://www.w3.org/2000/svg">
<path d="M21 15.5C21 16.0304 20.7893 16.5391 20.4142 16.9142C20.0391 17.2893 19.5304 17.5 19 17.5H7L3 21.5V5.5C3 4.96957 3.21071 4.46086 3.58579 4.08579C3.96086 3.71071 4.46957 3.5 5 3.5H19C19.5304 3.5 20.0391 3.71071 20.4142 4.08579C20.7893 4.46086 21 4.96957 21 5.5V15.5Z" stroke="#6C6C6C" stroke-width="2" stroke-linecap="round" stroke-linejoin="round"/>
<path fill-rule="evenodd" clip-rule="evenodd" d="M7.9 7.5C7.40294 7.5 7 7.90294 7 8.4C7 8.89706 7.40294 9.3 7.9 9.3H17.1C17.5971 9.3 18 8.89706 18 8.4C18 7.90294 17.5971 7.5 17.1 7.5H7.9ZM7.9 11.1C7.40294 11.1 7 11.503 7 12C7 12.4971 7.40294 12.9 7.9 12.9H12.1C12.5971 12.9 13 12.4971 13 12C13 11.503 12.5971 11.1 12.1 11.1H7.9Z" fill="#6C6C6C"/>
</svg>
