<svg width="32" height="32" viewBox="0 0 32 32" fill="none" xmlns="http://www.w3.org/2000/svg">
<path d="M25.3333 4H6.66667C5.19391 4 4 5.19391 4 6.66667V25.3333C4 26.8061 5.19391 28 6.66667 28H25.3333C26.8061 28 28 26.8061 28 25.3333V6.66667C28 5.19391 26.8061 4 25.3333 4Z" stroke="#658F47" stroke-width="2" stroke-linecap="round" stroke-linejoin="round"/>
<path d="M11.3333 13.333C12.4378 13.333 13.3333 12.4376 13.3333 11.333C13.3333 10.2284 12.4378 9.33301 11.3333 9.33301C10.2287 9.33301 9.33325 10.2284 9.33325 11.333C9.33325 12.4376 10.2287 13.333 11.3333 13.333Z" stroke="#658F47" stroke-width="2" stroke-linecap="round" stroke-linejoin="round"/>
<path d="M28.0001 19.9997L21.3334 13.333L6.66675 27.9997" stroke="#658F47" stroke-width="2" stroke-linecap="round" stroke-linejoin="round"/>
</svg>
