<svg width="90" height="60" viewBox="0 0 90 60" fill="none" xmlns="http://www.w3.org/2000/svg">
<path fill-rule="evenodd" clip-rule="evenodd" d="M14.4067 10.7502C14.6094 10.2364 14.3573 9.65564 13.8436 9.4529C13.3299 9.25016 12.7491 9.50226 12.5463 10.016C11.4028 12.9137 9.97193 17.2194 9.43773 20.6738C9.17642 22.3636 9.09802 24.0289 9.50884 25.2315C9.72362 25.8603 10.1076 26.4642 10.7664 26.8142C11.4248 27.1639 12.1774 27.1641 12.9299 26.9615C14.7017 26.4845 16.3183 25.1838 17.7047 23.6546C18.0011 23.3277 18.291 22.9858 18.5738 22.6328C18.467 23.5762 18.3788 24.5826 18.3136 25.655C13.0755 30.1809 10.0938 34.5415 8.69869 38.1358C7.80659 40.4341 7.54291 42.4748 7.81745 44.0587C8.08967 45.6292 8.95763 46.9558 10.4574 47.2558C11.8925 47.5428 13.1892 46.7789 14.2205 45.69C15.2698 44.5823 16.2297 42.9585 17.06 41.0236C18.6704 37.2708 19.8873 32.1252 20.2581 26.6267C21.5246 25.5674 22.9267 24.4948 24.4752 23.4177C24.9286 23.1024 25.0405 22.4792 24.7252 22.0258C24.4099 21.5724 23.7867 21.4605 23.3333 21.7758C22.3157 22.4835 21.3567 23.1914 20.4539 23.8972C20.6405 21.8955 20.9111 20.1822 21.2231 18.728C21.2831 18.6255 21.3425 18.5231 21.4011 18.4211C22.4393 16.6135 23.2716 14.8555 23.818 13.5377C24.0901 12.8814 24.298 12.3182 24.4249 11.9036C24.4862 11.7038 24.5401 11.5016 24.5667 11.3274C24.578 11.2529 24.5974 11.1062 24.5779 10.9424C24.5687 10.8643 24.5414 10.694 24.4326 10.5133C24.3029 10.2978 24.0522 10.0707 23.6826 10.0245C23.3265 9.98002 23.0511 10.1244 22.9508 10.1809C22.8139 10.258 22.6941 10.3541 22.5951 10.4443C22.3938 10.628 22.1835 10.8759 21.9716 11.1744C21.5436 11.7775 21.049 12.673 20.5619 13.9039C20.1345 14.9839 19.7088 16.3326 19.3382 17.9864C18.4167 19.5312 17.3581 21.0593 16.223 22.3113C14.9341 23.7329 13.634 24.7007 12.41 25.0303C11.9642 25.1503 11.7725 25.084 11.7046 25.0479C11.6371 25.012 11.5128 24.9109 11.4015 24.585C11.1601 23.8784 11.158 22.6365 11.4142 20.9795C11.9151 17.7404 13.2842 13.5944 14.4067 10.7502ZM10.5632 38.8595C11.6823 35.9764 14.0044 32.3936 18.081 28.5562C17.5911 33.0667 16.5323 37.1816 15.2221 40.2349C14.4393 42.0592 13.5916 43.4457 12.7685 44.3147C11.9274 45.2027 11.287 45.3821 10.8497 45.2946C10.4771 45.2201 9.98394 44.8472 9.78806 43.7171C9.59451 42.6005 9.75572 40.9397 10.5632 38.8595ZM22.5895 11.0262L22.589 11.0291C22.5901 11.019 22.5908 11.0174 22.5895 11.0262ZM35.5536 18.7199C35.5032 18.3423 35.3551 17.9516 35.0394 17.6457C34.7221 17.3381 34.332 17.21 33.9742 17.1795C33.315 17.1234 32.6076 17.3807 31.9949 17.695C30.7156 18.3514 29.2084 19.5959 27.9357 21.0726C26.6658 22.546 25.5345 24.3599 25.1351 26.1987C25.1263 26.2391 25.1179 26.2796 25.1098 26.3201C24.8091 26.5693 24.6704 26.9834 24.7907 27.3806C24.8318 27.5162 24.8992 27.6367 24.9855 27.7382C25.0277 29.125 25.5824 30.4685 26.8988 31.5503C28.3914 32.7769 30.2594 32.8942 32.1066 32.4543C33.9439 32.0168 35.8979 31.0026 37.7762 29.7539C38.486 29.2821 39.1939 28.7706 39.8906 28.2342C39.8757 28.591 39.8787 28.9594 39.9014 29.3395C39.9594 30.3093 40.226 31.1585 40.8069 31.7453C41.4172 32.3618 42.2127 32.529 42.964 32.4438C44.371 32.2841 45.8913 31.2327 47.0878 29.9566C48.1332 28.8417 49.0661 27.4146 49.565 25.8934C50.6063 25.8285 51.8155 25.677 53.2142 25.4249C52.6819 26.3734 52.3443 27.4193 52.3443 28.5307C52.3443 28.9313 52.5292 29.2763 52.8133 29.5045C53.0592 29.702 53.3364 29.7806 53.5401 29.8162C53.9509 29.8878 54.4303 29.8452 54.8945 29.7575C55.8538 29.5764 57.1008 29.1331 58.4191 28.4391C59.781 27.7221 61.2673 26.7116 62.6248 25.3871C62.2133 26.8507 61.7752 28.3274 61.3068 29.7897C58.237 32.0619 55.0601 34.6638 52.2866 37.2059C48.9992 40.219 46.1941 43.2239 44.8492 45.5312C44.5084 46.1158 44.2394 46.692 44.0867 47.2403C43.936 47.7816 43.8766 48.3754 44.0565 48.9413C44.4674 50.2334 45.7822 50.6167 47.122 50.6167C52.5738 50.6167 56.4939 45.908 59.3679 40.1543C60.7609 37.3655 61.9629 34.2229 63.0111 31.0189C63.4221 30.7185 63.8306 30.4246 64.2352 30.1383C66.6868 28.4033 68.9504 26.9778 70.7592 26.045C70.5855 26.5849 70.4427 27.1249 70.3447 27.6459C70.2237 28.2896 70.1642 28.9391 70.2165 29.5413C70.2684 30.1387 70.4369 30.7616 70.8387 31.2722C71.7314 32.4065 73.2408 32.4344 74.8953 31.8799C76.5956 31.31 78.8719 30.0097 81.8816 27.7786C82.3252 27.4497 82.4183 26.8234 82.0894 26.3797C81.7605 25.936 81.1342 25.843 80.6905 26.1719C77.7316 28.3654 75.6577 29.515 74.2597 29.9836C72.8158 30.4675 72.4789 30.1224 72.4104 30.0353C72.3316 29.9352 72.2409 29.7354 72.209 29.3683C72.1775 29.006 72.2098 28.5494 72.3102 28.0156C72.511 26.948 72.957 25.7115 73.4911 24.5788C73.662 24.2164 73.6001 23.787 73.3338 23.4876C73.0676 23.1883 72.6483 23.0768 72.2685 23.2042C70.2066 23.8962 67.2121 25.6469 63.9905 27.8694C64.7221 25.3995 65.37 22.9498 65.9513 20.6528C66.078 20.1523 65.8028 19.6377 65.3163 19.4651C65.2489 19.4412 65.1806 19.4249 65.1122 19.4159C65.0678 19.3781 65.0194 19.3437 64.9673 19.3132C64.4754 19.0264 63.8894 18.9597 63.3586 18.9764C62.808 18.9938 62.2011 19.105 61.5796 19.2803C60.335 19.6312 58.9223 20.2704 57.5922 21.1103C56.7396 21.6486 55.903 22.2807 55.1571 22.9901C55.1326 22.9937 55.1081 22.9983 55.0835 23.0038C52.9703 23.4782 51.281 23.7439 49.9427 23.8598C49.9949 22.3997 49.5454 20.9302 48.306 19.7162C47.7692 19.1286 47.0236 19.1786 46.5661 19.3084C46.1721 19.4203 45.7883 19.6335 45.4469 19.8867C43.7661 20.7264 41.6023 22.4259 40.5356 25.132C39.2911 26.1972 37.9794 27.2172 36.669 28.0884C34.8779 29.2791 33.1512 30.1496 31.6433 30.5087C30.1453 30.8654 29.0036 30.6913 28.1686 30.0051C27.3829 29.3594 27.0243 28.5945 26.9847 27.732C28.5509 27.1656 30.5065 26.2485 32.1497 25.0194C34.1042 23.5574 35.9028 21.4262 35.5541 18.7241L35.5536 18.7199ZM30.9517 23.4179C29.8864 24.2148 28.6485 24.8753 27.5027 25.3738C27.9439 24.36 28.634 23.3258 29.4506 22.3783C30.6048 21.0393 31.917 19.9829 32.9079 19.4745C33.2132 19.3178 33.4393 19.2386 33.5912 19.2013C33.6777 20.7046 32.6667 22.135 30.9517 23.4179ZM41.8979 29.2201C41.8323 28.1245 41.9733 27.1502 42.2521 26.2917C42.9033 25.7228 43.5331 25.1459 44.1323 24.5749C44.2106 24.6703 44.2979 24.7623 44.3945 24.8501C44.9283 25.3354 45.6798 25.6353 46.5952 25.7924C46.8518 25.8364 47.1286 25.8704 47.4268 25.8937C47.0074 26.8613 46.3671 27.8013 45.6289 28.5886C44.5498 29.7394 43.4415 30.3767 42.7385 30.4565C42.4348 30.491 42.3049 30.4156 42.2283 30.3383C42.1224 30.2313 41.9407 29.9355 41.8979 29.2201ZM45.7398 23.3702C45.6495 23.2881 45.6111 23.2143 45.5987 23.1306C46.1746 22.544 46.7072 21.9779 47.1856 21.4492C47.7778 22.1709 47.9996 23.0112 47.9384 23.9211C47.555 23.9052 47.2216 23.8706 46.9334 23.8212C46.2276 23.7001 45.8885 23.5054 45.7398 23.3702ZM63.5619 20.9746C63.5192 20.9737 63.4725 20.9738 63.4217 20.9755C63.0806 20.9862 62.6407 21.0591 62.1225 21.2052C61.0878 21.497 59.8504 22.0497 58.66 22.8013C57.4689 23.5534 56.3687 24.477 55.5764 25.4856C54.9711 26.2561 54.5731 27.0395 54.4177 27.811C54.4513 27.8054 54.4865 27.7992 54.5234 27.7922C55.2421 27.6565 56.2995 27.2947 57.4874 26.6694C59.6125 25.5506 62.01 23.6665 63.5619 20.9746ZM53.8774 27.8445C53.8774 27.8445 53.8796 27.8449 53.8837 27.8459C53.8793 27.8451 53.8773 27.8446 53.8774 27.8445ZM60.1499 33.1832C57.8968 34.9446 55.6567 36.83 53.638 38.6803C50.3648 41.6803 47.758 44.5123 46.577 46.5384C46.2863 47.0372 46.1043 47.4504 46.0134 47.7768C45.9205 48.1103 45.9438 48.2765 45.9625 48.3352L45.9634 48.3381C45.9698 48.359 45.9827 48.4012 46.1051 48.4599C46.2658 48.5368 46.5776 48.6167 47.122 48.6167C51.2957 48.6167 54.7212 44.9812 57.5787 39.2606C58.5183 37.3794 59.3714 35.3222 60.1499 33.1832ZM77.0961 18.6264C77.632 18.4929 77.8501 17.5158 77.5832 16.444C77.3163 15.3722 76.6655 14.6115 76.1295 14.7449C75.5936 14.8784 75.3756 15.8555 75.6425 16.9273C75.9094 17.9991 76.5602 18.7598 77.0961 18.6264Z" fill="#658F47"/>
</svg>
