<svg width="40" height="40" viewBox="0 0 40 40" fill="none" xmlns="http://www.w3.org/2000/svg">
<path d="M31.6667 5H8.33333C6.49238 5 5 6.49238 5 8.33333V31.6667C5 33.5076 6.49238 35 8.33333 35H31.6667C33.5076 35 35 33.5076 35 31.6667V8.33333C35 6.49238 33.5076 5 31.6667 5Z" stroke="white" stroke-width="2" stroke-linecap="round" stroke-linejoin="round"/>
<path d="M14.1665 16.666C15.5472 16.666 16.6665 15.5467 16.6665 14.166C16.6665 12.7853 15.5472 11.666 14.1665 11.666C12.7858 11.666 11.6665 12.7853 11.6665 14.166C11.6665 15.5467 12.7858 16.666 14.1665 16.666Z" stroke="white" stroke-width="2" stroke-linecap="round" stroke-linejoin="round"/>
<path d="M35.0002 24.9993L26.6668 16.666L8.3335 34.9993" stroke="white" stroke-width="2" stroke-linecap="round" stroke-linejoin="round"/>
</svg>
