<svg width="64" height="64" viewBox="0 0 64 64" fill="none" xmlns="http://www.w3.org/2000/svg">
<path d="M8 16H13.3333H56" stroke="black" stroke-width="3" stroke-linecap="round" stroke-linejoin="round"/>
<path d="M50.6667 15.9997V53.333C50.6667 54.7475 50.1048 56.104 49.1046 57.1042C48.1044 58.1044 46.7478 58.6663 45.3333 58.6663H18.6667C17.2522 58.6663 15.8956 58.1044 14.8954 57.1042C13.8952 56.104 13.3333 54.7475 13.3333 53.333V15.9997M21.3333 15.9997V10.6663C21.3333 9.25185 21.8952 7.8953 22.8954 6.8951C23.8956 5.89491 25.2522 5.33301 26.6667 5.33301H37.3333C38.7478 5.33301 40.1044 5.89491 41.1046 6.8951C42.1048 7.8953 42.6667 9.25185 42.6667 10.6663V15.9997" stroke="black" stroke-width="3" stroke-linecap="round" stroke-linejoin="round"/>
<path d="M26.6667 29.333V45.333" stroke="black" stroke-width="3" stroke-linecap="round" stroke-linejoin="round"/>
<path d="M37.3333 29.333V45.333" stroke="black" stroke-width="3" stroke-linecap="round" stroke-linejoin="round"/>
</svg>
