<svg width="126" height="142" viewBox="0 0 126 142" fill="none" xmlns="http://www.w3.org/2000/svg">
<g filter="url(#filter0_d_323_436)">
<mask id="path-1-inside-1_323_436" fill="white">
<path fill-rule="evenodd" clip-rule="evenodd" d="M79.8 14.5H40.2V22.5769H79.8V14.5ZM76.2 25.8077H43.8C43.8 25.8077 39.21 34.7386 34.8 39.5385C28.5834 46.3047 15 53.2692 15 53.2692C15 53.2692 33.193 72.4447 42 86.3846C49.7623 98.6709 58.2 119.5 58.2 119.5L58.2 71.0385H61.8V119.5C61.8 119.5 70.2377 98.6709 78 86.3846C86.807 72.4447 105 53.2692 105 53.2692C105 53.2692 91.4166 46.3047 85.2 39.5385C80.79 34.7386 76.2 25.8077 76.2 25.8077ZM60 41.9615C57.6062 41.9616 56.4069 57.1775 56.4069 57.1775C56.4069 57.1775 54.0115 57.1775 46.2265 59.8238C42.0345 61.2487 41.8865 62.3377 42.0345 62.4701C42.1825 62.6024 56.4069 62.4701 56.4069 62.4701L57.6046 67.7626C57.6046 67.7626 54.9081 67.7626 54.1612 69.3504C53.8909 69.9249 53.8618 70.8043 54.0115 70.9381C54.1596 71.0705 65.8371 71.0733 65.9885 70.9381C66.1398 70.8029 65.9145 69.9465 65.689 69.3504C65.0886 67.7626 62.3954 67.7626 62.3954 67.7626L63.5931 62.4701C63.5931 62.4701 77.8174 62.6024 77.9654 62.4701C78.1135 62.3378 77.9654 61.2487 73.7735 59.8238C65.9885 57.1775 63.5931 57.1775 63.5931 57.1775C63.5931 57.1775 62.3937 41.9615 60 41.9615Z"/>
</mask>
<path fill-rule="evenodd" clip-rule="evenodd" d="M79.8 14.5H40.2V22.5769H79.8V14.5ZM76.2 25.8077H43.8C43.8 25.8077 39.21 34.7386 34.8 39.5385C28.5834 46.3047 15 53.2692 15 53.2692C15 53.2692 33.193 72.4447 42 86.3846C49.7623 98.6709 58.2 119.5 58.2 119.5L58.2 71.0385H61.8V119.5C61.8 119.5 70.2377 98.6709 78 86.3846C86.807 72.4447 105 53.2692 105 53.2692C105 53.2692 91.4166 46.3047 85.2 39.5385C80.79 34.7386 76.2 25.8077 76.2 25.8077ZM60 41.9615C57.6062 41.9616 56.4069 57.1775 56.4069 57.1775C56.4069 57.1775 54.0115 57.1775 46.2265 59.8238C42.0345 61.2487 41.8865 62.3377 42.0345 62.4701C42.1825 62.6024 56.4069 62.4701 56.4069 62.4701L57.6046 67.7626C57.6046 67.7626 54.9081 67.7626 54.1612 69.3504C53.8909 69.9249 53.8618 70.8043 54.0115 70.9381C54.1596 71.0705 65.8371 71.0733 65.9885 70.9381C66.1398 70.8029 65.9145 69.9465 65.689 69.3504C65.0886 67.7626 62.3954 67.7626 62.3954 67.7626L63.5931 62.4701C63.5931 62.4701 77.8174 62.6024 77.9654 62.4701C78.1135 62.3378 77.9654 61.2487 73.7735 59.8238C65.9885 57.1775 63.5931 57.1775 63.5931 57.1775C63.5931 57.1775 62.3937 41.9615 60 41.9615Z" fill="#2C493C"/>
<path d="M40.2 14.5V13.5C39.6477 13.5 39.2 13.9477 39.2 14.5H40.2ZM79.8 14.5H80.8C80.8 13.9477 80.3523 13.5 79.8 13.5V14.5ZM40.2 22.5769H39.2C39.2 23.1292 39.6477 23.5769 40.2 23.5769V22.5769ZM79.8 22.5769V23.5769C80.3523 23.5769 80.8 23.1292 80.8 22.5769H79.8ZM43.8 25.8077V24.8077C43.4252 24.8077 43.0819 25.0173 42.9106 25.3506L43.8 25.8077ZM76.2 25.8077L77.0894 25.3506C76.9181 25.0173 76.5748 24.8077 76.2 24.8077V25.8077ZM34.8 39.5385L35.5364 40.215L34.8 39.5385ZM15 53.2692L14.5437 52.3794C14.2634 52.5231 14.0672 52.7905 14.0142 53.1011C13.9613 53.4116 14.0577 53.729 14.2746 53.9575L15 53.2692ZM42 86.3846L42.8454 85.8505L42 86.3846ZM58.2 119.5L57.2732 119.875C57.4528 120.319 57.9215 120.573 58.3913 120.482C58.861 120.39 59.2 119.979 59.2 119.5H58.2ZM58.2 71.0385V70.0385C57.6477 70.0385 57.2 70.4862 57.2 71.0385H58.2ZM61.8 71.0385H62.8C62.8 70.4862 62.3523 70.0385 61.8 70.0385V71.0385ZM61.8 119.5H60.8C60.8 119.979 61.139 120.39 61.6087 120.482C62.0784 120.573 62.5472 120.319 62.7268 119.875L61.8 119.5ZM78 86.3846L78.8454 86.9187L78 86.3846ZM105 53.2692L105.725 53.9575C105.942 53.729 106.039 53.4116 105.986 53.1011C105.933 52.7905 105.737 52.5231 105.456 52.3794L105 53.2692ZM85.2 39.5385L84.4636 40.215L85.2 39.5385ZM56.4069 57.1775V58.1775C56.9287 58.1775 57.3628 57.7763 57.4038 57.2561L56.4069 57.1775ZM60 41.9615L60 40.9615L60 41.9615ZM46.2265 59.8238L46.5483 60.7706L46.2265 59.8238ZM42.0345 62.4701L41.368 63.2155L41.368 63.2155L42.0345 62.4701ZM56.4069 62.4701L57.3822 62.2494C57.2783 61.7902 56.8683 61.4657 56.3976 61.4701L56.4069 62.4701ZM57.6046 67.7626L57.6046 68.7626C57.9086 68.7626 58.1961 68.6243 58.3858 68.3868C58.5756 68.1493 58.647 67.8384 58.5799 67.5419L57.6046 67.7626ZM54.1612 69.3504L53.2563 68.9247L54.1612 69.3504ZM54.0115 70.9381L53.3451 71.6837L53.3451 71.6837L54.0115 70.9381ZM65.9885 70.9381L65.3222 70.1924L65.3222 70.1924L65.9885 70.9381ZM65.689 69.3504L64.7537 69.7041L65.689 69.3504ZM62.3954 67.7626L61.42 67.5419C61.3529 67.8384 61.4244 68.1493 61.6141 68.3868C61.8039 68.6243 62.0914 68.7626 62.3954 68.7626L62.3954 67.7626ZM63.5931 62.4701L63.6024 61.4701C63.1317 61.4657 62.7216 61.7902 62.6177 62.2494L63.5931 62.4701ZM77.9654 62.4701L78.6317 63.2158L78.6317 63.2158L77.9654 62.4701ZM73.7735 59.8238L74.0953 58.877L73.7735 59.8238ZM63.5931 57.1775L62.5962 57.2561C62.6372 57.7763 63.0713 58.1775 63.5931 58.1775V57.1775ZM40.2 15.5H79.8V13.5H40.2V15.5ZM41.2 22.5769V14.5H39.2V22.5769H41.2ZM79.8 21.5769H40.2V23.5769H79.8V21.5769ZM78.8 14.5V22.5769H80.8V14.5H78.8ZM43.8 26.8077H76.2V24.8077H43.8V26.8077ZM35.5364 40.215C37.8132 37.737 40.1056 34.2318 41.8114 31.3874C42.669 29.9573 43.3871 28.6792 43.8911 27.7582C44.1432 27.2975 44.342 26.9257 44.4781 26.6684C44.5462 26.5397 44.5986 26.4396 44.6342 26.3713C44.652 26.3371 44.6656 26.3109 44.6748 26.293C44.6795 26.2841 44.683 26.2772 44.6854 26.2725C44.6867 26.2701 44.6876 26.2683 44.6883 26.267C44.6886 26.2664 44.6889 26.2659 44.689 26.2655C44.6891 26.2653 44.6892 26.2651 44.6893 26.2651C44.6894 26.2649 44.6894 26.2648 43.8 25.8077C42.9106 25.3506 42.9106 25.3505 42.9106 25.3505C42.9106 25.3506 42.9106 25.3506 42.9105 25.3507C42.9104 25.3509 42.9103 25.3512 42.9101 25.3516C42.9096 25.3525 42.9089 25.3539 42.9079 25.3559C42.9059 25.3598 42.9027 25.3658 42.8985 25.3739C42.8902 25.3901 42.8774 25.4146 42.8605 25.4471C42.8268 25.5119 42.7762 25.6084 42.7102 25.7333C42.5781 25.9831 42.3838 26.3465 42.1367 26.7981C41.6422 27.7016 40.9373 28.9562 40.0961 30.3588C38.4044 33.1799 36.1968 36.5401 34.0636 38.8619L35.5364 40.215ZM15 53.2692C15.4563 54.1591 15.4564 54.159 15.4566 54.1589C15.4567 54.1588 15.457 54.1587 15.4572 54.1586C15.4578 54.1583 15.4585 54.1579 15.4595 54.1574C15.4613 54.1565 15.4641 54.1551 15.4676 54.1533C15.4746 54.1496 15.4849 54.1443 15.4984 54.1374C15.5253 54.1235 15.5648 54.103 15.6164 54.0761C15.7195 54.0223 15.8707 53.943 16.0648 53.84C16.4529 53.6339 17.0129 53.3326 17.7038 52.9502C19.0851 52.1856 20.992 51.0952 23.0957 49.7911C27.2788 47.1978 32.3294 43.7055 35.5364 40.215L34.0636 38.8619C31.054 42.1376 26.2045 45.5107 22.0419 48.0912C19.9726 49.3741 18.0951 50.4477 16.7353 51.2004C16.0556 51.5766 15.5058 51.8723 15.1269 52.0735C14.9374 52.1741 14.7906 52.2511 14.6918 52.3026C14.6423 52.3284 14.6048 52.3479 14.5799 52.3607C14.5675 52.3671 14.5582 52.3719 14.5522 52.3751C14.5491 52.3766 14.5469 52.3778 14.5455 52.3785C14.5448 52.3788 14.5443 52.3791 14.544 52.3792C14.5439 52.3793 14.5438 52.3794 14.5437 52.3794C14.5437 52.3794 14.5437 52.3794 15 53.2692ZM42.8454 85.8505C38.3998 78.8139 31.6084 70.4881 25.954 63.9456C23.1219 60.6688 20.5662 57.8291 18.7182 55.8084C17.7941 54.7979 17.0468 53.9919 16.5301 53.4382C16.2717 53.1613 16.071 52.9474 15.9346 52.8026C15.8665 52.7302 15.8144 52.675 15.7792 52.6378C15.7617 52.6192 15.7483 52.6051 15.7393 52.5956C15.7348 52.5908 15.7314 52.5872 15.7291 52.5848C15.7279 52.5836 15.7271 52.5826 15.7264 52.582C15.7261 52.5817 15.7259 52.5814 15.7257 52.5813C15.7256 52.5811 15.7254 52.581 15 53.2692C14.2746 53.9575 14.2746 53.9575 14.2747 53.9576C14.2748 53.9578 14.275 53.9579 14.2752 53.9582C14.2757 53.9587 14.2765 53.9596 14.2775 53.9607C14.2796 53.9629 14.2828 53.9662 14.2871 53.9708C14.2957 53.9798 14.3086 53.9934 14.3257 54.0115C14.3599 54.0478 14.4111 54.102 14.4783 54.1734C14.6128 54.3162 14.8115 54.528 15.0678 54.8026C15.5804 55.352 16.3232 56.153 17.2423 57.1581C19.0808 59.1684 21.6237 61.9938 24.4408 65.2534C30.0846 71.7836 36.7932 80.0155 41.1546 86.9187L42.8454 85.8505ZM58.2 119.5C59.1268 119.125 59.1268 119.124 59.1267 119.124C59.1266 119.124 59.1265 119.124 59.1264 119.123C59.1261 119.123 59.1257 119.122 59.1251 119.12C59.124 119.118 59.1225 119.114 59.1203 119.109C59.1161 119.098 59.1099 119.083 59.1017 119.063C59.0853 119.022 59.0609 118.963 59.0288 118.884C58.9646 118.727 58.8696 118.496 58.7461 118.198C58.4992 117.602 58.138 116.738 57.6805 115.662C56.7656 113.511 55.4648 110.515 53.9205 107.134C50.8371 100.383 46.7643 92.0534 42.8454 85.8505L41.1546 86.9187C44.998 93.0022 49.0252 101.23 52.1012 107.965C53.6367 111.327 54.9304 114.306 55.8401 116.445C56.2949 117.514 56.6536 118.373 56.8984 118.964C57.0208 119.259 57.1147 119.488 57.1779 119.642C57.2095 119.719 57.2334 119.778 57.2494 119.817C57.2574 119.837 57.2634 119.851 57.2674 119.861C57.2693 119.866 57.2708 119.87 57.2718 119.872C57.2723 119.873 57.2726 119.874 57.2729 119.875C57.273 119.875 57.273 119.875 57.2731 119.875C57.2731 119.875 57.2732 119.875 58.2 119.5ZM57.2 71.0385L57.2 119.5H59.2L59.2 71.0385H57.2ZM61.8 70.0385H58.2V72.0385H61.8V70.0385ZM62.8 119.5V71.0385H60.8V119.5H62.8ZM77.1546 85.8505C73.2357 92.0534 69.1629 100.383 66.0795 107.134C64.5352 110.515 63.2344 113.511 62.3195 115.662C61.862 116.738 61.5008 117.602 61.2539 118.198C61.1304 118.496 61.0354 118.727 60.9712 118.884C60.9391 118.963 60.9147 119.022 60.8983 119.063C60.8901 119.083 60.8838 119.098 60.8796 119.109C60.8775 119.114 60.8759 119.118 60.8749 119.12C60.8743 119.122 60.8739 119.123 60.8736 119.123C60.8735 119.124 60.8734 119.124 60.8733 119.124C60.8732 119.124 60.8732 119.125 61.8 119.5C62.7268 119.875 62.7269 119.875 62.7269 119.875C62.727 119.875 62.727 119.875 62.7271 119.875C62.7274 119.874 62.7277 119.873 62.7282 119.872C62.7292 119.87 62.7307 119.866 62.7326 119.861C62.7366 119.851 62.7426 119.837 62.7506 119.817C62.7666 119.778 62.7905 119.719 62.8221 119.642C62.8853 119.488 62.9792 119.259 63.1016 118.964C63.3464 118.373 63.7051 117.514 64.1599 116.445C65.0696 114.306 66.3633 111.327 67.8988 107.965C70.9748 101.23 75.002 93.0022 78.8454 86.9187L77.1546 85.8505ZM105 53.2692C104.275 52.581 104.274 52.5811 104.274 52.5813C104.274 52.5814 104.274 52.5817 104.274 52.582C104.273 52.5826 104.272 52.5836 104.271 52.5848C104.269 52.5872 104.265 52.5908 104.261 52.5956C104.252 52.6051 104.238 52.6192 104.221 52.6378C104.186 52.675 104.134 52.7302 104.065 52.8026C103.929 52.9474 103.728 53.1613 103.47 53.4382C102.953 53.9919 102.206 54.7979 101.282 55.8084C99.4338 57.8291 96.8781 60.6688 94.046 63.9456C88.3916 70.4881 81.6002 78.8139 77.1546 85.8505L78.8454 86.9187C83.2068 80.0155 89.9154 71.7836 95.5592 65.2534C98.3763 61.9938 100.919 59.1684 102.758 57.1581C103.677 56.153 104.42 55.352 104.932 54.8026C105.189 54.528 105.387 54.3162 105.522 54.1734C105.589 54.102 105.64 54.0478 105.674 54.0115C105.691 53.9934 105.704 53.9798 105.713 53.9708C105.717 53.9662 105.72 53.9629 105.722 53.9607C105.724 53.9596 105.724 53.9587 105.725 53.9582C105.725 53.9579 105.725 53.9578 105.725 53.9576C105.725 53.9575 105.725 53.9575 105 53.2692ZM84.4636 40.215C87.6706 43.7055 92.7212 47.1978 96.9043 49.7911C99.008 51.0952 100.915 52.1856 102.296 52.9502C102.987 53.3326 103.547 53.6339 103.935 53.84C104.129 53.943 104.281 54.0223 104.384 54.0761C104.435 54.103 104.475 54.1235 104.502 54.1374C104.515 54.1443 104.525 54.1496 104.532 54.1533C104.536 54.1551 104.539 54.1565 104.541 54.1574C104.541 54.1579 104.542 54.1583 104.543 54.1586C104.543 54.1587 104.543 54.1588 104.543 54.1589C104.544 54.159 104.544 54.1591 105 53.2692C105.456 52.3794 105.456 52.3794 105.456 52.3794C105.456 52.3794 105.456 52.3793 105.456 52.3792C105.456 52.3791 105.455 52.3788 105.455 52.3785C105.453 52.3778 105.451 52.3766 105.448 52.3751C105.442 52.3719 105.433 52.3671 105.42 52.3607C105.395 52.3479 105.358 52.3284 105.308 52.3026C105.209 52.2511 105.063 52.1741 104.873 52.0735C104.494 51.8723 103.944 51.5766 103.265 51.2004C101.905 50.4477 100.027 49.3741 97.9581 48.0912C93.7955 45.5107 88.946 42.1376 85.9364 38.8619L84.4636 40.215ZM76.2 25.8077C75.3106 26.2648 75.3106 26.2649 75.3107 26.2651C75.3108 26.2651 75.3109 26.2653 75.311 26.2655C75.3111 26.2659 75.3114 26.2664 75.3117 26.267C75.3124 26.2683 75.3133 26.2701 75.3146 26.2725C75.317 26.2772 75.3205 26.2841 75.3251 26.293C75.3344 26.3109 75.348 26.3371 75.3658 26.3713C75.4014 26.4396 75.4538 26.5397 75.5219 26.6684C75.658 26.9257 75.8567 27.2975 76.1088 27.7582C76.6128 28.6792 77.331 29.9573 78.1886 31.3874C79.8944 34.2318 82.1868 37.737 84.4636 40.215L85.9364 38.8619C83.8032 36.5401 81.5956 33.1799 79.9038 30.3588C79.0627 28.9562 78.3578 27.7016 77.8633 26.7981C77.6162 26.3465 77.4219 25.9831 77.2898 25.7333C77.2237 25.6084 77.1732 25.5119 77.1395 25.4471C77.1226 25.4146 77.1098 25.3901 77.1015 25.3739C77.0973 25.3658 77.0941 25.3598 77.0921 25.3559C77.0911 25.3539 77.0904 25.3525 77.0899 25.3516C77.0897 25.3512 77.0896 25.3509 77.0895 25.3507C77.0894 25.3506 77.0894 25.3506 77.0894 25.3505C77.0894 25.3505 77.0894 25.3506 76.2 25.8077ZM56.4069 57.1775C57.4038 57.2561 57.4038 57.2561 57.4038 57.2561C57.4038 57.256 57.4038 57.2559 57.4038 57.2557C57.4039 57.2554 57.4039 57.2548 57.404 57.254C57.4041 57.2523 57.4043 57.2498 57.4046 57.2463C57.4051 57.2394 57.406 57.229 57.4071 57.215C57.4094 57.1871 57.4128 57.1452 57.4174 57.0904C57.4266 56.9808 57.4405 56.8194 57.4591 56.6134C57.4962 56.2015 57.5519 55.6121 57.6262 54.9045C57.775 53.4877 57.9977 51.6041 58.2936 49.7251C58.5911 47.8359 58.9564 45.9931 59.3826 44.6393C59.5979 43.9552 59.8106 43.4563 60.0046 43.1481C60.2386 42.7763 60.2591 42.9615 60 42.9615L60 40.9615C59.1424 40.9616 58.6018 41.6223 58.312 42.0827C57.9823 42.6065 57.7085 43.2964 57.4748 44.0388C57.0029 45.538 56.6195 47.4992 56.318 49.414C56.0148 51.339 55.788 53.2594 55.6372 54.6956C55.5617 55.4145 55.505 56.0138 55.4671 56.434C55.4482 56.6442 55.434 56.8096 55.4245 56.9229C55.4197 56.9795 55.4161 57.0232 55.4137 57.0528C55.4125 57.0676 55.4116 57.079 55.411 57.0867C55.4107 57.0906 55.4104 57.0935 55.4103 57.0956C55.4102 57.0966 55.4101 57.0974 55.4101 57.098C55.41 57.0983 55.41 57.0985 55.41 57.0986C55.41 57.0988 55.41 57.099 56.4069 57.1775ZM46.5483 60.7706C50.4128 59.457 52.9183 58.8075 54.442 58.4869C55.2033 58.3267 55.7167 58.2492 56.0296 58.2118C56.1859 58.1932 56.2916 58.1846 56.3527 58.1807C56.3832 58.1787 56.4025 58.1779 56.4113 58.1776C56.4157 58.1775 56.4175 58.1775 56.4167 58.1775C56.4163 58.1775 56.4153 58.1775 56.4137 58.1775C56.4129 58.1775 56.4119 58.1775 56.4107 58.1775C56.4102 58.1775 56.4096 58.1775 56.4089 58.1775C56.4086 58.1775 56.4081 58.1775 56.4079 58.1775C56.4074 58.1775 56.4069 58.1775 56.4069 57.1775C56.4069 56.1775 56.4063 56.1775 56.4058 56.1775C56.4056 56.1775 56.405 56.1775 56.4046 56.1776C56.4038 56.1776 56.403 56.1776 56.4022 56.1776C56.4004 56.1776 56.3986 56.1776 56.3966 56.1776C56.3926 56.1776 56.388 56.1777 56.3829 56.1778C56.3726 56.1779 56.3599 56.1782 56.3449 56.1787C56.3148 56.1797 56.275 56.1815 56.2248 56.1848C56.1245 56.1912 55.9823 56.2033 55.7924 56.226C55.4129 56.2713 54.8408 56.3592 54.0302 56.5298C52.4099 56.8707 49.8252 57.5443 45.9046 58.877L46.5483 60.7706ZM42.7011 61.7246C42.9559 61.9525 42.9947 62.2251 42.9993 62.3342C43.005 62.4668 42.9741 62.5531 42.963 62.5802C42.9413 62.633 42.955 62.562 43.1554 62.3896C43.5558 62.0449 44.5007 61.4666 46.5483 60.7706L45.9046 58.877C43.7603 59.6059 42.5352 60.2846 41.8507 60.8737C41.5086 61.1682 41.251 61.4833 41.1122 61.8221C41.0426 61.9921 40.9916 62.1964 41.0011 62.4195C41.0097 62.619 41.0762 62.9546 41.368 63.2155L42.7011 61.7246ZM56.4069 62.4701C56.3976 61.4701 56.3975 61.4701 56.3974 61.4701C56.3973 61.4701 56.3972 61.4701 56.397 61.4701C56.3965 61.4701 56.3959 61.4701 56.395 61.4701C56.3933 61.4702 56.3908 61.4702 56.3874 61.4702C56.3805 61.4703 56.3704 61.4704 56.3569 61.4705C56.3301 61.4707 56.2902 61.4711 56.2381 61.4716C56.134 61.4725 55.9813 61.4739 55.7868 61.4755C55.3978 61.4789 54.8419 61.4836 54.1743 61.4887C52.839 61.4991 51.0575 61.5115 49.2716 61.5197C47.485 61.528 45.6968 61.5321 44.3472 61.5259C43.6715 61.5228 43.111 61.5172 42.717 61.5083C42.5185 61.5039 42.3715 61.4988 42.2763 61.4935C42.2533 61.4922 42.2354 61.491 42.2221 61.4899C42.2081 61.4889 42.2029 61.4883 42.2042 61.4884C42.205 61.4885 42.2099 61.4891 42.2177 61.4903C42.2248 61.4913 42.2401 61.4938 42.2607 61.4982C42.2778 61.5018 42.319 61.5111 42.371 61.5293C42.3954 61.5378 42.5494 61.5889 42.7011 61.7246L41.368 63.2155C41.522 63.3533 41.68 63.4064 41.7101 63.4169C41.7679 63.4372 41.8165 63.4484 41.8427 63.454C41.897 63.4656 41.9453 63.4718 41.9734 63.475C42.0344 63.4821 42.1019 63.4868 42.1643 63.4903C42.2938 63.4976 42.4676 63.5032 42.6722 63.5078C43.0845 63.5171 43.6594 63.5228 44.3381 63.5259C45.6972 63.5321 47.4928 63.528 49.2808 63.5197C51.0695 63.5114 52.8533 63.499 54.1898 63.4887C54.858 63.4835 55.4145 63.4788 55.804 63.4755C55.9988 63.4738 56.1518 63.4724 56.2561 63.4715C56.3083 63.471 56.3483 63.4707 56.3752 63.4704C56.3887 63.4703 56.399 63.4702 56.4058 63.4701C56.4092 63.4701 56.4118 63.4701 56.4136 63.4701C56.4144 63.4701 56.4151 63.47 56.4155 63.47C56.4157 63.47 56.4159 63.47 56.416 63.47C56.4161 63.47 56.4162 63.47 56.4069 62.4701ZM58.5799 67.5419L57.3822 62.2494L55.4316 62.6908L56.6293 67.9833L58.5799 67.5419ZM55.0661 69.776C55.241 69.4042 55.7158 69.1096 56.4134 68.9292C56.7316 68.8469 57.0369 68.8044 57.265 68.783C57.3778 68.7725 57.4685 68.7673 57.5285 68.7649C57.5584 68.7636 57.5805 68.7631 57.5936 68.7628C57.6001 68.7627 57.6044 68.7626 57.6063 68.7626C57.6072 68.7626 57.6076 68.7626 57.6073 68.7626C57.6072 68.7626 57.6069 68.7626 57.6064 68.7626C57.6062 68.7626 57.6059 68.7626 57.6056 68.7626C57.6055 68.7626 57.6052 68.7626 57.6051 68.7626C57.6049 68.7626 57.6046 68.7626 57.6046 67.7626C57.6046 66.7626 57.6043 66.7626 57.604 66.7626C57.6039 66.7626 57.6035 66.7626 57.6033 66.7626C57.6028 66.7626 57.6023 66.7626 57.6018 66.7626C57.6007 66.7626 57.5994 66.7626 57.598 66.7626C57.5951 66.7626 57.5915 66.7627 57.5874 66.7627C57.579 66.7628 57.5681 66.7629 57.5547 66.7632C57.5279 66.7637 57.4913 66.7647 57.446 66.7666C57.3557 66.7703 57.2299 66.7776 57.0782 66.7918C56.7774 66.82 56.3618 66.8768 55.9126 66.9929C55.0753 67.2095 53.8283 67.7088 53.2563 68.9247L55.0661 69.776ZM54.6779 70.1925C54.7701 70.275 54.8248 70.3575 54.8543 70.4092C54.8848 70.4627 54.9016 70.5066 54.91 70.5312C54.926 70.578 54.9275 70.6017 54.9257 70.5876C54.9224 70.5617 54.9183 70.491 54.9263 70.3818C54.9338 70.2773 54.9507 70.1609 54.9768 70.0482C55.0034 69.9338 55.0355 69.8411 55.0661 69.776L53.2563 68.9247C53.0541 69.3547 52.9598 69.8468 52.9315 70.2372C52.9171 70.4364 52.9169 70.6466 52.9418 70.8412C52.9541 70.9373 52.9758 71.0562 53.0178 71.179C53.0524 71.2799 53.1382 71.4988 53.3451 71.6837L54.6779 70.1925ZM65.3222 70.1924C65.4493 70.0788 65.5734 70.0281 65.6089 70.0138C65.6606 69.9929 65.7024 69.9815 65.7225 69.9762C65.7635 69.9656 65.792 69.9616 65.7938 69.9613C65.8015 69.9602 65.7914 69.9619 65.7523 69.9649C65.679 69.9707 65.5618 69.9769 65.3988 69.9831C65.0762 69.9952 64.616 70.0056 64.0591 70.0139C62.9476 70.0305 61.4744 70.0386 59.9989 70.0385C58.5233 70.0383 57.0504 70.0297 55.9391 70.0131C55.3824 70.0047 54.9223 69.9944 54.5998 69.9824C54.4368 69.9763 54.3195 69.9701 54.246 69.9644C54.2068 69.9614 54.1964 69.9597 54.2037 69.9608C54.2053 69.961 54.2335 69.9649 54.2741 69.9753C54.294 69.9804 54.3357 69.9917 54.3875 70.0123C54.4221 70.0261 54.5487 70.077 54.6779 70.1925L53.3451 71.6837C53.4766 71.8013 53.6069 71.8542 53.6467 71.8701C53.7036 71.8928 53.7518 71.9061 53.7795 71.9132C53.8358 71.9275 53.8852 71.9354 53.9132 71.9395C53.9734 71.9484 54.037 71.9542 54.0915 71.9584C54.2054 71.9672 54.3543 71.9746 54.5251 71.981C54.8701 71.9939 55.3479 72.0044 55.9091 72.0129C57.0337 72.0297 58.5174 72.0383 59.9986 72.0385C61.4799 72.0386 62.9638 72.0304 64.089 72.0137C64.6504 72.0053 65.1286 71.9947 65.4742 71.9817C65.6451 71.9752 65.7945 71.9678 65.909 71.9588C65.9638 71.9545 66.0278 71.9485 66.0887 71.9395C66.117 71.9352 66.1667 71.9272 66.2235 71.9125C66.2516 71.9052 66.2998 71.8917 66.3567 71.8687C66.3974 71.8523 66.5253 71.7995 66.6547 71.6839L65.3222 70.1924ZM64.7537 69.7041C64.8528 69.9662 64.9494 70.2806 65.0024 70.527C65.0298 70.655 65.0371 70.7263 65.0377 70.7477C65.0381 70.7602 65.035 70.7198 65.0497 70.6499C65.0601 70.6001 65.1094 70.3825 65.3222 70.1924L66.6547 71.6839C66.9054 71.4599 66.9807 71.186 67.0069 71.0612C67.0374 70.9162 67.0397 70.7821 67.0368 70.6859C67.0307 70.4901 66.9959 70.2847 66.9578 70.1072C66.8795 69.7426 66.7507 69.3307 66.6244 68.9966L64.7537 69.7041ZM62.3954 67.7626C62.3954 68.7626 62.3951 68.7626 62.3948 68.7626C62.3947 68.7626 62.3945 68.7626 62.3943 68.7626C62.394 68.7626 62.3938 68.7626 62.3935 68.7626C62.3931 68.7626 62.3928 68.7626 62.3927 68.7626C62.3924 68.7626 62.3927 68.7626 62.3936 68.7626C62.3955 68.7626 62.3998 68.7627 62.4063 68.7628C62.4193 68.7631 62.4412 68.7636 62.4709 68.7648C62.5304 68.7673 62.6201 68.7724 62.7313 68.783C62.9564 68.8043 63.2546 68.8465 63.5607 68.9277C64.2434 69.1087 64.6349 69.3901 64.7537 69.7041L66.6244 68.9966C66.1427 67.7229 64.8874 67.2104 64.0734 66.9945C63.6311 66.8772 63.2185 66.8202 62.9199 66.7919C62.7692 66.7776 62.6438 66.7703 62.5537 66.7666C62.5086 66.7647 62.472 66.7637 62.4453 66.7632C62.4319 66.7629 62.421 66.7628 62.4126 66.7627C62.4084 66.7627 62.4049 66.7626 62.402 66.7626C62.4006 66.7626 62.3993 66.7626 62.3982 66.7626C62.3977 66.7626 62.3971 66.7626 62.3967 66.7626C62.3964 66.7626 62.3961 66.7626 62.396 66.7626C62.3957 66.7626 62.3954 66.7626 62.3954 67.7626ZM62.6177 62.2494L61.42 67.5419L63.3707 67.9833L64.5684 62.6908L62.6177 62.2494ZM77.2992 61.7243C77.4509 61.5888 77.6048 61.5378 77.6291 61.5292C77.6812 61.511 77.7223 61.5018 77.7394 61.4981C77.76 61.4938 77.7752 61.4913 77.7823 61.4902C77.7902 61.4891 77.795 61.4885 77.7959 61.4884C77.7971 61.4882 77.7919 61.4889 77.7779 61.4899C77.7646 61.491 77.7467 61.4922 77.7237 61.4934C77.6284 61.4988 77.4815 61.5039 77.2829 61.5083C76.889 61.5171 76.3284 61.5228 75.6527 61.5259C74.3031 61.5321 72.5149 61.528 70.7284 61.5197C68.9425 61.5114 67.1609 61.499 65.8257 61.4887C65.1581 61.4835 64.6022 61.4789 64.2132 61.4755C64.0187 61.4739 63.866 61.4725 63.7618 61.4716C63.7098 61.4711 63.6699 61.4707 63.643 61.4705C63.6296 61.4704 63.6194 61.4703 63.6126 61.4702C63.6092 61.4702 63.6066 61.4702 63.6049 61.4701C63.6041 61.4701 63.6034 61.4701 63.603 61.4701C63.6028 61.4701 63.6026 61.4701 63.6025 61.4701C63.6024 61.4701 63.6024 61.4701 63.5931 62.4701C63.5838 63.47 63.5838 63.47 63.584 63.47C63.5841 63.47 63.5842 63.47 63.5844 63.47C63.5849 63.47 63.5855 63.4701 63.5864 63.4701C63.5881 63.4701 63.5907 63.4701 63.5942 63.4701C63.601 63.4702 63.6113 63.4703 63.6247 63.4704C63.6517 63.4707 63.6917 63.471 63.7439 63.4715C63.8482 63.4724 64.0012 63.4738 64.1959 63.4755C64.5854 63.4788 65.1419 63.4835 65.8102 63.4886C67.1466 63.499 68.9304 63.5114 70.7191 63.5197C72.5071 63.5279 74.3028 63.5321 75.6619 63.5259C76.3405 63.5228 76.9155 63.5171 77.3278 63.5078C77.5324 63.5032 77.7062 63.4976 77.8356 63.4903C77.898 63.4868 77.9655 63.4821 78.0265 63.475C78.0547 63.4718 78.1029 63.4656 78.1572 63.454C78.1834 63.4484 78.2319 63.4372 78.2897 63.417C78.3197 63.4065 78.4776 63.3534 78.6317 63.2158L77.2992 61.7243ZM73.4517 60.7706C75.4992 61.4666 76.4442 62.0449 76.8446 62.3896C77.045 62.5621 77.0587 62.6331 77.037 62.5802C77.026 62.5532 76.995 62.4668 77.0007 62.3341C77.0054 62.2249 77.0442 61.9522 77.2992 61.7243L78.6317 63.2158C78.9237 62.9549 78.9903 62.6192 78.9989 62.4196C79.0084 62.1965 78.9574 61.9921 78.8878 61.8221C78.749 61.4834 78.4914 61.1682 78.1493 60.8737C77.4648 60.2846 76.2397 59.6059 74.0953 58.877L73.4517 60.7706ZM63.5931 57.1775C63.5931 58.1775 63.5925 58.1775 63.592 58.1775C63.5919 58.1775 63.5914 58.1775 63.591 58.1775C63.5904 58.1775 63.5898 58.1775 63.5892 58.1775C63.5881 58.1775 63.5871 58.1775 63.5863 58.1775C63.5847 58.1775 63.5836 58.1775 63.5833 58.1775C63.5825 58.1775 63.5843 58.1775 63.5887 58.1776C63.5975 58.1779 63.6168 58.1787 63.6473 58.1807C63.7084 58.1846 63.8141 58.1932 63.9704 58.2118C64.2833 58.2492 64.7967 58.3267 65.558 58.4869C67.0817 58.8075 69.5872 59.457 73.4517 60.7706L74.0953 58.877C70.1748 57.5443 67.5901 56.8707 65.9698 56.5298C65.1592 56.3592 64.5871 56.2713 64.2076 56.226C64.0177 56.2033 63.8754 56.1912 63.7751 56.1848C63.7249 56.1815 63.6852 56.1797 63.6551 56.1787C63.64 56.1782 63.6274 56.1779 63.6171 56.1778C63.612 56.1777 63.6074 56.1776 63.6034 56.1776C63.6014 56.1776 63.5995 56.1776 63.5978 56.1776C63.597 56.1776 63.5961 56.1776 63.5953 56.1776C63.5949 56.1775 63.5944 56.1775 63.5942 56.1775C63.5936 56.1775 63.5931 56.1775 63.5931 57.1775ZM60 42.9615C59.7409 42.9615 59.7614 42.7763 59.9953 43.148C60.1894 43.4563 60.4021 43.9552 60.6174 44.6393C61.0436 45.9931 61.4089 47.8359 61.7064 49.7251C62.0023 51.6041 62.2249 53.4877 62.3738 54.9045C62.4481 55.6121 62.5038 56.2015 62.5409 56.6134C62.5594 56.8194 62.5733 56.9808 62.5825 57.0904C62.5871 57.1452 62.5906 57.1871 62.5929 57.215C62.594 57.229 62.5948 57.2394 62.5954 57.2463C62.5957 57.2498 62.5959 57.2523 62.596 57.254C62.5961 57.2548 62.5961 57.2554 62.5961 57.2557C62.5962 57.2559 62.5962 57.256 62.5962 57.2561C62.5962 57.2561 62.5962 57.2561 63.5931 57.1775C64.59 57.099 64.59 57.0988 64.59 57.0986C64.59 57.0985 64.5899 57.0983 64.5899 57.098C64.5899 57.0974 64.5898 57.0966 64.5897 57.0956C64.5896 57.0935 64.5893 57.0906 64.589 57.0867C64.5884 57.079 64.5875 57.0676 64.5863 57.0528C64.5839 57.0232 64.5803 56.9795 64.5755 56.9229C64.566 56.8096 64.5518 56.6442 64.5328 56.434C64.495 56.0138 64.4383 55.4145 64.3628 54.6956C64.2119 53.2594 63.9852 51.339 63.682 49.414C63.3805 47.4992 62.9971 45.538 62.5251 44.0387C62.2914 43.2964 62.0177 42.6065 61.688 42.0826C61.3982 41.6222 60.8575 40.9615 60 40.9615L60 42.9615Z" fill="#0C0C0C" mask="url(#path-1-inside-1_323_436)"/>
</g>
<defs>
<filter id="filter0_d_323_436" x="-15" y="-7" width="156" height="156" filterUnits="userSpaceOnUse" color-interpolation-filters="sRGB">
<feFlood flood-opacity="0" result="BackgroundImageFix"/>
<feColorMatrix in="SourceAlpha" type="matrix" values="0 0 0 0 0 0 0 0 0 0 0 0 0 0 0 0 0 0 127 0" result="hardAlpha"/>
<feOffset dx="3" dy="4"/>
<feGaussianBlur stdDeviation="9"/>
<feComposite in2="hardAlpha" operator="out"/>
<feColorMatrix type="matrix" values="0 0 0 0 0.419824 0 0 0 0 0.267706 0 0 0 0 0.115588 0 0 0 0.27 0"/>
<feBlend mode="multiply" in2="BackgroundImageFix" result="effect1_dropShadow_323_436"/>
<feBlend mode="normal" in="SourceGraphic" in2="effect1_dropShadow_323_436" result="shape"/>
</filter>
</defs>
</svg>
